<?xml version="1.0" encoding="utf-8"?>
<svg version="1.1" xmlns:xlink="http://www.w3.org/1999/xlink" width="12px" height="12px" viewBox="1412 120  12 12" xmlns="http://www.w3.org/2000/svg">
  <path d="M 1418 120  C 1421.36 120  1424 122.64  1424 126  C 1424 129.36  1421.36 132  1418 132  C 1414.64 132  1412 129.36  1412 126  C 1412 122.64  1414.64 120  1418 120  Z " fill-rule="nonzero" fill="#ffffff" stroke="none" />
  <path d="M 1418 120.5  C 1421.08 120.5  1423.5 122.92  1423.5 126  C 1423.5 129.08  1421.08 131.5  1418 131.5  C 1414.92 131.5  1412.5 129.08  1412.5 126  C 1412.5 122.92  1414.92 120.5  1418 120.5  Z " stroke-width="1" stroke="#797979" fill="none" />
  <path d="M 1418 129  C 1416.32 129  1415 127.68  1415 126  C 1415 124.32  1416.32 123  1418 123  C 1419.68 123  1421 124.32  1421 126  C 1421 127.68  1419.68 129  1418 129  " fill-rule="nonzero" fill="#797979" stroke="none" />
</svg>