<?xml version="1.0" encoding="utf-8"?>
<svg version="1.1" xmlns:xlink="http://www.w3.org/1999/xlink" width="12px" height="12px" viewBox="1286 120  12 12" xmlns="http://www.w3.org/2000/svg">
  <path d="M 1292 120  C 1295.36 120  1298 122.64  1298 126  C 1298 129.36  1295.36 132  1292 132  C 1288.64 132  1286 129.36  1286 126  C 1286 122.64  1288.64 120  1292 120  Z " fill-rule="nonzero" fill="#f0f0f0" stroke="none" />
  <path d="M 1292 120.5  C 1295.08 120.5  1297.5 122.92  1297.5 126  C 1297.5 129.08  1295.08 131.5  1292 131.5  C 1288.92 131.5  1286.5 129.08  1286.5 126  C 1286.5 122.92  1288.92 120.5  1292 120.5  Z " stroke-width="1" stroke="#797979" fill="none" />
  <path d="M 1292 129  C 1290.32 129  1289 127.68  1289 126  C 1289 124.32  1290.32 123  1292 123  C 1293.68 123  1295 124.32  1295 126  C 1295 127.68  1293.68 129  1292 129  " fill-rule="nonzero" fill="#797979" stroke="none" />
</svg>