<?xml version="1.0" encoding="utf-8"?>
<svg version="1.1" xmlns:xlink="http://www.w3.org/1999/xlink" width="10px" height="21px" preserveAspectRatio="xMidYMin meet" viewBox="1819 654  8 21" xmlns="http://www.w3.org/2000/svg">
  <path d="M 196 660  L 196 665  A 5 5 0 0 0 201 670 L 1818 670  A 5 5 0 0 0 1823 665 L 1823 660  " stroke-width="2" stroke-dasharray="6,2" stroke="#70b603" fill="none" />
  <path d="M 196 654  A 3.5 3.5 0 0 0 192.5 657.5 A 3.5 3.5 0 0 0 196 661 A 3.5 3.5 0 0 0 199.5 657.5 A 3.5 3.5 0 0 0 196 654 Z M 196 656  A 1.5 1.5 0 0 1 197.5 657.5 A 1.5 1.5 0 0 1 196 659 A 1.5 1.5 0 0 1 194.5 657.5 A 1.5 1.5 0 0 1 196 656 Z M 1830.6 661  L 1823 654  L 1815.4 661  L 1830.6 661  Z M 1825.8 659  L 1820.2 659  L 1823 657  L 1825.8 659  Z " fill-rule="nonzero" fill="#70b603" stroke="none" />
</svg>