<?xml version="1.0" encoding="utf-8"?>
<svg version="1.1" xmlns:xlink="http://www.w3.org/1999/xlink" width="18px" height="14px" xmlns="http://www.w3.org/2000/svg">
  <g transform="matrix(1 0 0 1 -814 -71 )">
    <path d="M 16.6118559681286 13.7940481800426  C 16.3883574695935 13.893380830522  16.0955701920944 13.9430471635299  15.8027829145954 13.9430471635299  C 15.5099956370961 13.9430471635299  15.217208359597 13.893380830522  14.9937098610619 13.7940481800426  L 0.499147408780118 7.35202042347299  C 0.0521504816229594 7.15351410466974  0.0521504816229594 6.8313507102273  0.499147408780118 6.63286028497868  L 14.9937098610619 0.190816619318184  C 15.4407067882191 -0.00784868164060981  16.1648232455167 -0.00784868164060981  16.6118201726742 0.190816619318184  C 17.0588170998316 0.389322938121438  17.0588170998316 0.711486332563936  16.6118201726742 0.909976757812501  L 2.92633077392577 6.99243239968041  L 16.6118559681286 13.0748880415483  C 17.058852895286 13.2733943603516  17.058852895286 13.595557754794  16.6118559681286 13.7940481800426  Z " fill-rule="nonzero" fill="#1989fa" stroke="none" transform="matrix(1 0 0 1 814 71 )" />
  </g>
</svg>