<?xml version="1.0" encoding="utf-8"?>
<svg version="1.1" xmlns:xlink="http://www.w3.org/1999/xlink" width="20px" height="20px" preserveAspectRatio="xMinYMid meet" viewBox="799 347  20 18" xmlns="http://www.w3.org/2000/svg">
  <path d="M 791 356  L 808 356  " stroke-width="2" stroke-dasharray="6,2" stroke="#70b603" fill="none" />
  <path d="M 788.5 352.5  A 3.5 3.5 0 0 0 785 356 A 3.5 3.5 0 0 0 788.5 359.5 A 3.5 3.5 0 0 0 792 356 A 3.5 3.5 0 0 0 788.5 352.5 Z M 788.5 354.5  A 1.5 1.5 0 0 1 790 356 A 1.5 1.5 0 0 1 788.5 357.5 A 1.5 1.5 0 0 1 787 356 A 1.5 1.5 0 0 1 788.5 354.5 Z M 807 363.6  L 814 356  L 807 348.4  L 807 363.6  Z M 809 358.8  L 809 353.2  L 811 356  L 809 358.8  Z " fill-rule="nonzero" fill="#70b603" stroke="none" />
</svg>