<?xml version="1.0" encoding="utf-8"?>
<svg version="1.1" xmlns:xlink="http://www.w3.org/1999/xlink" width="12px" height="12px" viewBox="823 348  12 12" xmlns="http://www.w3.org/2000/svg">
  <path d="M 829 348  C 832.36 348  835 350.64  835 354  C 835 357.36  832.36 360  829 360  C 825.64 360  823 357.36  823 354  C 823 350.64  825.64 348  829 348  Z " fill-rule="nonzero" fill="#f0f0f0" stroke="none" />
  <path d="M 829 348.5  C 832.08 348.5  834.5 350.92  834.5 354  C 834.5 357.08  832.08 359.5  829 359.5  C 825.92 359.5  823.5 357.08  823.5 354  C 823.5 350.92  825.92 348.5  829 348.5  Z " stroke-width="1" stroke="#797979" fill="none" />
  <path d="M 829 357  C 827.32 357  826 355.68  826 354  C 826 352.32  827.32 351  829 351  C 830.68 351  832 352.32  832 354  C 832 355.68  830.68 357  829 357  " fill-rule="nonzero" fill="#797979" stroke="none" />
</svg>