<?xml version="1.0" encoding="utf-8"?>
<svg version="1.1" xmlns:xlink="http://www.w3.org/1999/xlink" width="25px" height="24px" xmlns="http://www.w3.org/2000/svg">
  <g transform="matrix(1 0 0 1 -335 -167 )">
    <path d="M 24.4107744107744 17.9393939393939  C 24.8035914702581 18.3164983164983  25 18.7744107744108  25 19.3131313131313  C 25 19.8518518518519  24.8035914702581 20.3097643097643  24.4107744107744 20.6868686868687  L 21.5488215488215 23.4343434343434  C 21.1560044893378 23.8114478114478  20.679012345679 24  20.1178451178451 24  C 19.5566778900112 24  19.0796857463524 23.8114478114478  18.6868686868687 23.4343434343434  L 12.5 17.4949494949495  L 6.31313131313131 23.4343434343434  C 5.92031425364759 23.8114478114478  5.44332210998878 24  4.88215488215488 24  C 4.32098765432099 24  3.84399551066218 23.8114478114478  3.45117845117845 23.4343434343434  L 0.589225589225589 20.6868686868687  C 0.196408529741863 20.3097643097643  0 19.8518518518519  0 19.3131313131313  C 0 18.7744107744108  0.196408529741863 18.3164983164983  0.589225589225589 17.9393939393939  L 6.77609427609428 12  L 0.589225589225589 6.06060606060606  C 0.196408529741863 5.68350168350168  0 5.22558922558923  0 4.68686868686869  C 0 4.14814814814815  0.196408529741863 3.69023569023569  0.589225589225589 3.31313131313131  L 3.45117845117845 0.565656565656566  C 3.84399551066218 0.188552188552188  4.32098765432099 0  4.88215488215488 0  C 5.44332210998878 0  5.92031425364759 0.188552188552188  6.31313131313131 0.565656565656566  L 12.5 6.50505050505051  L 18.6868686868687 0.565656565656566  C 19.0796857463524 0.188552188552188  19.5566778900112 0  20.1178451178451 0  C 20.679012345679 0  21.1560044893378 0.188552188552188  21.5488215488215 0.565656565656566  L 24.4107744107744 3.31313131313131  C 24.8035914702581 3.69023569023569  25 4.14814814814815  25 4.68686868686869  C 25 5.22558922558923  24.8035914702581 5.68350168350168  24.4107744107744 6.06060606060606  L 18.2239057239057 12  L 24.4107744107744 17.9393939393939  Z " fill-rule="nonzero" fill="#000000" stroke="none" transform="matrix(1 0 0 1 335 167 )" />
  </g>
</svg>