<?xml version="1.0" encoding="utf-8"?>
<svg version="1.1" xmlns:xlink="http://www.w3.org/1999/xlink" width="25px" height="25px" xmlns="http://www.w3.org/2000/svg">
  <g transform="matrix(1 0 0 1 -312 -505 )">
    <path d="M 324.5 505  C 331.5 505  337 510.5  337 517.5  C 337 524.5  331.5 530  324.5 530  C 317.5 530  312 524.5  312 517.5  C 312 510.5  317.5 505  324.5 505  Z " fill-rule="nonzero" fill="#ffffff" stroke="none" />
    <path d="M 324.5 505.5  C 331.22 505.5  336.5 510.78  336.5 517.5  C 336.5 524.22  331.22 529.5  324.5 529.5  C 317.78 529.5  312.5 524.22  312.5 517.5  C 312.5 510.78  317.78 505.5  324.5 505.5  Z " stroke-width="1" stroke="#797979" fill="none" />
  </g>
</svg>