<?xml version="1.0" encoding="utf-8"?>
<svg version="1.1" xmlns:xlink="http://www.w3.org/1999/xlink" width="12px" height="12px" viewBox="29 149  12 12" xmlns="http://www.w3.org/2000/svg">
  <path d="M 35 149  C 38.36 149  41 151.64  41 155  C 41 158.36  38.36 161  35 161  C 31.64 161  29 158.36  29 155  C 29 151.64  31.64 149  35 149  Z " fill-rule="nonzero" fill="#ffffff" stroke="none" />
  <path d="M 35 149.5  C 38.08 149.5  40.5 151.92  40.5 155  C 40.5 158.08  38.08 160.5  35 160.5  C 31.92 160.5  29.5 158.08  29.5 155  C 29.5 151.92  31.92 149.5  35 149.5  Z " stroke-width="1" stroke="#797979" fill="none" />
  <path d="M 35 158  C 33.32 158  32 156.68  32 155  C 32 153.32  33.32 152  35 152  C 36.68 152  38 153.32  38 155  C 38 156.68  36.68 158  35 158  " fill-rule="nonzero" fill="#797979" stroke="none" />
</svg>