<?xml version="1.0" encoding="utf-8"?>
<svg version="1.1" xmlns:xlink="http://www.w3.org/1999/xlink" width="12px" height="12px" viewBox="715 162  12 12" xmlns="http://www.w3.org/2000/svg">
  <path d="M 721 162  C 724.36 162  727 164.64  727 168  C 727 171.36  724.36 174  721 174  C 717.64 174  715 171.36  715 168  C 715 164.64  717.64 162  721 162  Z " fill-rule="nonzero" fill="#f0f0f0" stroke="none" />
  <path d="M 721 162.5  C 724.08 162.5  726.5 164.92  726.5 168  C 726.5 171.08  724.08 173.5  721 173.5  C 717.92 173.5  715.5 171.08  715.5 168  C 715.5 164.92  717.92 162.5  721 162.5  Z " stroke-width="1" stroke="#797979" fill="none" />
  <path d="M 721 171  C 719.32 171  718 169.68  718 168  C 718 166.32  719.32 165  721 165  C 722.68 165  724 166.32  724 168  C 724 169.68  722.68 171  721 171  " fill-rule="nonzero" fill="#797979" stroke="none" />
</svg>