<?xml version="1.0" encoding="utf-8"?>
<svg version="1.1" xmlns:xlink="http://www.w3.org/1999/xlink" width="12px" height="12px" viewBox="611 162  12 12" xmlns="http://www.w3.org/2000/svg">
  <path d="M 617 162  C 620.36 162  623 164.64  623 168  C 623 171.36  620.36 174  617 174  C 613.64 174  611 171.36  611 168  C 611 164.64  613.64 162  617 162  Z " fill-rule="nonzero" fill="#f0f0f0" stroke="none" />
  <path d="M 617 162.5  C 620.08 162.5  622.5 164.92  622.5 168  C 622.5 171.08  620.08 173.5  617 173.5  C 613.92 173.5  611.5 171.08  611.5 168  C 611.5 164.92  613.92 162.5  617 162.5  Z " stroke-width="1" stroke="#797979" fill="none" />
  <path d="M 617 171  C 615.32 171  614 169.68  614 168  C 614 166.32  615.32 165  617 165  C 618.68 165  620 166.32  620 168  C 620 169.68  618.68 171  617 171  " fill-rule="nonzero" fill="#797979" stroke="none" />
</svg>