<?xml version="1.0" encoding="utf-8"?>
<svg version="1.1" xmlns:xlink="http://www.w3.org/1999/xlink" width="12px" height="12px" viewBox="233 149  12 12" xmlns="http://www.w3.org/2000/svg">
  <path d="M 239 149  C 242.36 149  245 151.64  245 155  C 245 158.36  242.36 161  239 161  C 235.64 161  233 158.36  233 155  C 233 151.64  235.64 149  239 149  Z " fill-rule="nonzero" fill="#f0f0f0" stroke="none" />
  <path d="M 239 149.5  C 242.08 149.5  244.5 151.92  244.5 155  C 244.5 158.08  242.08 160.5  239 160.5  C 235.92 160.5  233.5 158.08  233.5 155  C 233.5 151.92  235.92 149.5  239 149.5  Z " stroke-width="1" stroke="#797979" fill="none" />
  <path d="M 239 158  C 237.32 158  236 156.68  236 155  C 236 153.32  237.32 152  239 152  C 240.68 152  242 153.32  242 155  C 242 156.68  240.68 158  239 158  " fill-rule="nonzero" fill="#797979" stroke="none" />
</svg>