<?xml version="1.0" encoding="utf-8"?>
<svg version="1.1" xmlns:xlink="http://www.w3.org/1999/xlink" width="12px" height="12px" viewBox="815 162  12 12" xmlns="http://www.w3.org/2000/svg">
  <path d="M 821 162  C 824.36 162  827 164.64  827 168  C 827 171.36  824.36 174  821 174  C 817.64 174  815 171.36  815 168  C 815 164.64  817.64 162  821 162  Z " fill-rule="nonzero" fill="#ffffff" stroke="none" />
  <path d="M 821 162.5  C 824.08 162.5  826.5 164.92  826.5 168  C 826.5 171.08  824.08 173.5  821 173.5  C 817.92 173.5  815.5 171.08  815.5 168  C 815.5 164.92  817.92 162.5  821 162.5  Z " stroke-width="1" stroke="#797979" fill="none" />
  <path d="M 821 171  C 819.32 171  818 169.68  818 168  C 818 166.32  819.32 165  821 165  C 822.68 165  824 166.32  824 168  C 824 169.68  822.68 171  821 171  " fill-rule="nonzero" fill="#797979" stroke="none" />
</svg>