<?xml version="1.0" encoding="utf-8"?>
<svg version="1.1" xmlns:xlink="http://www.w3.org/1999/xlink" width="63px" height="10px" preserveAspectRatio="xMinYMid meet" viewBox="1388 342  63 8" xmlns="http://www.w3.org/2000/svg">
  <path d="M 1394 346  L 1446 346  L 1446 365  L 1499 365  " stroke-width="2" stroke="#000000" fill="none" />
  <path d="M 1391.5 342.5  A 3.5 3.5 0 0 0 1388 346 A 3.5 3.5 0 0 0 1391.5 349.5 A 3.5 3.5 0 0 0 1395 346 A 3.5 3.5 0 0 0 1391.5 342.5 Z M 1391.5 344.5  A 1.5 1.5 0 0 1 1393 346 A 1.5 1.5 0 0 1 1391.5 347.5 A 1.5 1.5 0 0 1 1390 346 A 1.5 1.5 0 0 1 1391.5 344.5 Z M 1498 372.6  L 1505 365  L 1498 357.4  L 1498 372.6  Z M 1500 367.8  L 1500 362.2  L 1502 365  L 1500 367.8  Z " fill-rule="nonzero" fill="#000000" stroke="none" />
</svg>