<?xml version="1.0" encoding="utf-8"?>
<svg version="1.1" xmlns:xlink="http://www.w3.org/1999/xlink" width="29px" height="24px" xmlns="http://www.w3.org/2000/svg">
  <g transform="matrix(1 0 0 1 -358 -956 )">
    <path d="M 28.3164983164983 17.9393939393939  C 28.7721661054994 18.3164983164983  29 18.7744107744108  29 19.3131313131313  C 29 19.8518518518519  28.7721661054994 20.3097643097643  28.3164983164983 20.6868686868687  L 24.996632996633 23.4343434343434  C 24.5409652076319 23.8114478114478  23.9876543209877 24  23.3367003367003 24  C 22.685746352413 24  22.1324354657688 23.8114478114478  21.6767676767677 23.4343434343434  L 14.5 17.4949494949495  L 7.32323232323232 23.4343434343434  C 6.8675645342312 23.8114478114478  6.31425364758698 24  5.66329966329966 24  C 5.01234567901235 24  4.45903479236813 23.8114478114478  4.003367003367 23.4343434343434  L 0.683501683501683 20.6868686868687  C 0.227833894500561 20.3097643097643  0 19.8518518518519  0 19.3131313131313  C 0 18.7744107744108  0.227833894500561 18.3164983164983  0.683501683501683 17.9393939393939  L 7.86026936026936 12  L 0.683501683501683 6.06060606060606  C 0.227833894500561 5.68350168350168  0 5.22558922558923  0 4.68686868686869  C 0 4.14814814814815  0.227833894500561 3.69023569023569  0.683501683501683 3.31313131313131  L 4.003367003367 0.565656565656566  C 4.45903479236813 0.188552188552188  5.01234567901235 0  5.66329966329966 0  C 6.31425364758698 0  6.8675645342312 0.188552188552188  7.32323232323232 0.565656565656566  L 14.5 6.50505050505051  L 21.6767676767677 0.565656565656566  C 22.1324354657688 0.188552188552188  22.685746352413 0  23.3367003367003 0  C 23.9876543209877 0  24.5409652076319 0.188552188552188  24.996632996633 0.565656565656566  L 28.3164983164983 3.31313131313131  C 28.7721661054994 3.69023569023569  29 4.14814814814815  29 4.68686868686869  C 29 5.22558922558923  28.7721661054994 5.68350168350168  28.3164983164983 6.06060606060606  L 21.1397306397306 12  L 28.3164983164983 17.9393939393939  Z " fill-rule="nonzero" fill="#000000" stroke="none" transform="matrix(1 0 0 1 358 956 )" />
  </g>
</svg>