<?xml version="1.0" encoding="utf-8"?>
<svg version="1.1" xmlns:xlink="http://www.w3.org/1999/xlink" width="319px" height="138px" xmlns="http://www.w3.org/2000/svg">
  <g transform="matrix(1 0 0 1 -1959 -1033 )">
    <path d="M 1959 1033  L 2278 1033  L 2278 1171  L 1959 1171  L 1959 1033  " fill-rule="nonzero" fill="#cccccc" stroke="none" />
    <path d="M 1969 1043  L 2268 1043  L 2268 1161  L 1969 1161  L 1969 1043  " fill-rule="nonzero" fill="#ffffff" stroke="none" />
    <path d="M 2135.23 1074.4  C 2129.434 1074.4  2124.88 1069.846  2124.88 1064.05  C 2124.88 1058.254  2129.434 1053.7  2135.23 1053.7  C 2141.026 1053.7  2145.58 1058.254  2145.58 1064.05  C 2145.58 1069.846  2141.026 1074.4  2135.23 1074.4  " fill-rule="nonzero" fill="#cccccc" stroke="none" />
    <path d="M 1973 1158  L 1973 1096.95  L 2046 1069.2  L 2148.2 1129.18871473354  L 2206.6 1085.85  L 2265 1129.18871473354  L 2265 1158  L 1973 1158  " fill-rule="nonzero" fill="#169bd5" stroke="none" />
  </g>
</svg>