<?xml version="1.0" encoding="utf-8"?>
<svg version="1.1" xmlns:xlink="http://www.w3.org/1999/xlink" width="100px" height="100px" xmlns="http://www.w3.org/2000/svg">
  <g transform="matrix(1 0 0 1 -2426 -1089 )">
    <path d="M 2426 1089  L 2526 1089  L 2526 1189  L 2426 1189  L 2426 1089  " fill-rule="nonzero" fill="#cccccc" stroke="none" />
    <path d="M 2433 1096  L 2519 1096  L 2519 1182  L 2433 1182  L 2433 1096  " fill-rule="nonzero" fill="#ffffff" stroke="none" />
    <path d="M 2485.5 1119  C 2481.3 1119  2478 1115.7  2478 1111.5  C 2478 1107.3  2481.3 1104  2485.5 1104  C 2489.7 1104  2493 1107.3  2493 1111.5  C 2493 1115.7  2489.7 1119  2485.5 1119  " fill-rule="nonzero" fill="#cccccc" stroke="none" />
    <path d="M 2436 1180  L 2436 1135.45  L 2456.25 1115.2  L 2484.6 1131.4  L 2500.8 1127.35  L 2517 1131.4  L 2517 1180  L 2436 1180  " fill-rule="nonzero" fill="#169bd5" stroke="none" />
  </g>
</svg>