<?xml version="1.0" encoding="utf-8"?>
<svg version="1.1" xmlns:xlink="http://www.w3.org/1999/xlink" width="26px" height="26px" xmlns="http://www.w3.org/2000/svg">
  <g transform="matrix(1 0 0 1 -2573 -1118 )">
    <path d="M 6.474609375 1.74348958333333  C 8.46636284722222 0.581163194444442  10.6414930555556 0  13 0  C 15.3585069444444 0  17.5336371527778 0.581163194444442  19.525390625 1.74348958333333  C 21.5171440972222 2.90581597222222  23.0941840277778 4.48285590277778  24.2565104166667 6.474609375  C 25.4188368055556 8.46636284722222  26 10.6414930555556  26 13  C 26 15.3585069444444  25.4188368055556 17.5336371527778  24.2565104166667 19.525390625  C 23.0941840277778 21.5171440972222  21.5171440972222 23.0941840277778  19.525390625 24.2565104166667  C 17.5336371527778 25.4188368055556  15.3585069444444 26  13 26  C 10.6414930555556 26  8.46636284722222 25.4188368055556  6.474609375 24.2565104166667  C 4.48285590277778 23.0941840277778  2.90581597222222 21.5171440972222  1.74348958333333 19.525390625  C 0.581163194444444 17.5336371527778  0 15.3585069444444  0 13  C 0 10.6414930555556  0.581163194444444 8.46636284722222  1.74348958333333 6.474609375  C 2.90581597222222 4.48285590277778  4.48285590277778 2.90581597222222  6.474609375 1.74348958333333  Z M 10.2916666666667 19.34765625  L 19.5 13.9309895833333  C 19.8611111111111 13.7278645833333  20.0416666666667 13.4175347222222  20.0416666666667 13  C 20.0416666666667 12.5824652777778  19.8611111111111 12.2721354166667  19.5 12.0690104166667  L 10.2916666666667 6.65234375  C 9.94184027777778 6.43793402777778  9.58072916666667 6.43229166666667  9.20833333333333 6.63541666666667  C 8.84722222222222 6.84982638888889  8.66666666666667 7.16579861111111  9 7.58333333333333  L 9 18.4166666666667  C 8.66666666666667 18.8342013888889  8.84722222222222 19.1501736111111  9.20833333333333 19.3645833333333  C 9.38888888888889 19.4548611111111  9.56944444444444 19.5  9.75 19.5  C 9.94184027777778 19.5  10.1223958333333 19.44921875  10.2916666666667 19.34765625  Z " fill-rule="nonzero" fill="#000000" stroke="none" transform="matrix(1 0 0 1 2573 1118 )" />
  </g>
</svg>