<?xml version="1.0" encoding="utf-8"?>
<svg version="1.1" xmlns:xlink="http://www.w3.org/1999/xlink" width="75px" height="78px" xmlns="http://www.w3.org/2000/svg">
  <g transform="matrix(1 0 0 1 -1949 -1224 )">
    <path d="M 1949 1224  L 2024 1224  L 2024 1302  L 1949 1302  L 1949 1224  " fill-rule="nonzero" fill="#cccccc" stroke="none" />
    <path d="M 1954 1229  L 2019 1229  L 2019 1297  L 1954 1297  L 1954 1229  " fill-rule="nonzero" fill="#ffffff" stroke="none" />
    <path d="M 1993.625 1246.95  C 1990.475 1246.95  1988 1244.475  1988 1241.325  C 1988 1238.175  1990.475 1235.7  1993.625 1235.7  C 1996.775 1235.7  1999.25 1238.175  1999.25 1241.325  C 1999.25 1244.475  1996.775 1246.95  1993.625 1246.95  " fill-rule="nonzero" fill="#cccccc" stroke="none" />
    <path d="M 1956 1295  L 1956 1259.8  L 1971.25 1243.8  L 1992.6 1256.6  L 2004.8 1253.4  L 2017 1256.6  L 2017 1295  L 1956 1295  " fill-rule="nonzero" fill="#169bd5" stroke="none" />
    <path d="M 1950.5 1300.5  L 1950.5 1225.5  L 2022.5 1225.5  L 2022.5 1300.5  L 1950.5 1300.5  Z " stroke-width="3" stroke="#95f204" fill="none" />
  </g>
</svg>