<?xml version="1.0" encoding="utf-8"?>
<svg version="1.1" xmlns:xlink="http://www.w3.org/1999/xlink" width="75px" height="78px" xmlns="http://www.w3.org/2000/svg">
  <g transform="matrix(1 0 0 1 -2024 -1224 )">
    <path d="M 2024 1224  L 2099 1224  L 2099 1302  L 2024 1302  L 2024 1224  " fill-rule="nonzero" fill="#cccccc" stroke="none" />
    <path d="M 2029 1229  L 2094 1229  L 2094 1297  L 2029 1297  L 2029 1229  " fill-rule="nonzero" fill="#ffffff" stroke="none" />
    <path d="M 2068.625 1246.95  C 2065.475 1246.95  2063 1244.475  2063 1241.325  C 2063 1238.175  2065.475 1235.7  2068.625 1235.7  C 2071.775 1235.7  2074.25 1238.175  2074.25 1241.325  C 2074.25 1244.475  2071.775 1246.95  2068.625 1246.95  " fill-rule="nonzero" fill="#cccccc" stroke="none" />
    <path d="M 2031 1295  L 2031 1259.8  L 2046.25 1243.8  L 2067.6 1256.6  L 2079.8 1253.4  L 2092 1256.6  L 2092 1295  L 2031 1295  " fill-rule="nonzero" fill="#169bd5" stroke="none" />
  </g>
</svg>