<?xml version="1.0" encoding="utf-8"?>
<svg version="1.1" xmlns:xlink="http://www.w3.org/1999/xlink" width="12px" height="19px" xmlns="http://www.w3.org/2000/svg">
  <g transform="matrix(1 0 0 1 -360 -192 )">
    <path d="M 11.7938144329897 1.14228456913828  C 11.9312714776632 1.26920507682031  12 1.41516366065464  12 1.58016032064128  C 12 1.74515698062792  11.9312714776632 1.89111556446226  11.7938144329897 2.01803607214429  L 3.69072164948454 9.5  L 11.7938144329897 16.9819639278557  C 11.9312714776632 17.1088844355377  12 17.2548430193721  12 17.4198396793587  C 12 17.5848363393454  11.9312714776632 17.7307949231797  11.7938144329897 17.8577154308617  L 10.7628865979381 18.809619238477  C 10.6254295532646 18.936539746159  10.46735395189 19  10.2886597938144 19  C 10.1099656357388 19  9.95189003436426 18.936539746159  9.81443298969072 18.809619238477  L 0.206185567010309 9.93787575150301  C 0.0687285223367698 9.81095524382097  0 9.66499665998664  0 9.5  C 0 9.33500334001336  0.0687285223367698 9.18904475617902  0.206185567010309 9.06212424849699  L 9.81443298969072 0.190380761523046  C 9.95189003436426 0.0634602538410147  10.1099656357388 0  10.2886597938144 0  C 10.46735395189 0  10.6254295532646 0.0634602538410147  10.7628865979381 0.190380761523046  L 11.7938144329897 1.14228456913828  Z " fill-rule="nonzero" fill="#000000" stroke="none" transform="matrix(1 0 0 1 360 192 )" />
  </g>
</svg>