<?xml version="1.0" encoding="utf-8"?>
<svg version="1.1" xmlns:xlink="http://www.w3.org/1999/xlink" width="134px" height="99px" xmlns="http://www.w3.org/2000/svg">
  <g transform="matrix(1 0 0 1 -89 -881 )">
    <path d="M 89 881  L 223 881  L 223 980  L 89 980  L 89 881  " fill-rule="nonzero" fill="#cccccc" stroke="none" />
    <path d="M 96 888  L 216 888  L 216 973  L 96 973  L 96 888  " fill-rule="nonzero" fill="#ffffff" stroke="none" />
    <path d="M 166.105 910.7  C 161.947 910.7  158.68 907.433  158.68 903.275  C 158.68 899.117  161.947 895.85  166.105 895.85  C 170.263 895.85  173.53 899.117  173.53 903.275  C 173.53 907.433  170.263 910.7  166.105 910.7  " fill-rule="nonzero" fill="#cccccc" stroke="none" />
    <path d="M 99 971  L 99 927  L 127.75 907  L 168 935.537313432836  L 191 919  L 214 935.537313432836  L 214 971  L 99 971  " fill-rule="nonzero" fill="#169bd5" stroke="none" />
  </g>
</svg>