<?xml version="1.0" encoding="utf-8"?>
<svg version="1.1" xmlns:xlink="http://www.w3.org/1999/xlink" width="134px" height="99px" xmlns="http://www.w3.org/2000/svg">
  <g transform="matrix(1 0 0 1 -76 -843 )">
    <path d="M 76 843  L 210 843  L 210 942  L 76 942  L 76 843  " fill-rule="nonzero" fill="#cccccc" stroke="none" />
    <path d="M 83 850  L 203 850  L 203 935  L 83 935  L 83 850  " fill-rule="nonzero" fill="#ffffff" stroke="none" />
    <path d="M 153.105 872.7  C 148.947 872.7  145.68 869.433  145.68 865.275  C 145.68 861.117  148.947 857.85  153.105 857.85  C 157.263 857.85  160.53 861.117  160.53 865.275  C 160.53 869.433  157.263 872.7  153.105 872.7  " fill-rule="nonzero" fill="#cccccc" stroke="none" />
    <path d="M 86 933  L 86 889  L 114.75 869  L 155 897.537313432836  L 178 881  L 201 897.537313432836  L 201 933  L 86 933  " fill-rule="nonzero" fill="#169bd5" stroke="none" />
  </g>
</svg>