<?xml version="1.0" encoding="utf-8"?>
<svg version="1.1" xmlns:xlink="http://www.w3.org/1999/xlink" width="134px" height="104px" xmlns="http://www.w3.org/2000/svg">
  <g transform="matrix(1 0 0 1 -76 -964 )">
    <path d="M 76 964  L 210 964  L 210 1068  L 76 1068  L 76 964  " fill-rule="nonzero" fill="#cccccc" stroke="none" />
    <path d="M 83 971  L 203 971  L 203 1061  L 83 1061  L 83 971  " fill-rule="nonzero" fill="#ffffff" stroke="none" />
    <path d="M 153.48 995.2  C 149.112 995.2  145.68 991.768  145.68 987.4  C 145.68 983.032  149.112 979.6  153.48 979.6  C 157.848 979.6  161.28 983.032  161.28 987.4  C 161.28 991.768  157.848 995.2  153.48 995.2  " fill-rule="nonzero" fill="#cccccc" stroke="none" />
    <path d="M 86 1059  L 86 1012.25  L 114.75 991  L 155 1019.41791044776  L 178 1003.75  L 201 1019.41791044776  L 201 1059  L 86 1059  " fill-rule="nonzero" fill="#169bd5" stroke="none" />
  </g>
</svg>