<?xml version="1.0" encoding="utf-8"?>
<svg version="1.1" xmlns:xlink="http://www.w3.org/1999/xlink" width="15px" height="15px" xmlns="http://www.w3.org/2000/svg">
  <g transform="matrix(1 0 0 1 -1258 -2091 )">
    <path d="M 1265.5 2091  C 1269.7 2091  1273 2094.3  1273 2098.5  C 1273 2102.7  1269.7 2106  1265.5 2106  C 1261.3 2106  1258 2102.7  1258 2098.5  C 1258 2094.3  1261.3 2091  1265.5 2091  Z " fill-rule="nonzero" fill="#95f204" stroke="none" />
    <path d="M 1265.5 2091.5  C 1269.42 2091.5  1272.5 2094.58  1272.5 2098.5  C 1272.5 2102.42  1269.42 2105.5  1265.5 2105.5  C 1261.58 2105.5  1258.5 2102.42  1258.5 2098.5  C 1258.5 2094.58  1261.58 2091.5  1265.5 2091.5  Z " stroke-width="1" stroke="#797979" fill="none" />
  </g>
</svg>