<?xml version="1.0" encoding="utf-8"?>
<svg version="1.1" xmlns:xlink="http://www.w3.org/1999/xlink" width="168px" height="110px" xmlns="http://www.w3.org/2000/svg">
  <g transform="matrix(1 0 0 1 -793 -1961 )">
    <path d="M 793 1961  L 961 1961  L 961 2071  L 793 2071  L 793 1961  " fill-rule="nonzero" fill="#cccccc" stroke="none" />
    <path d="M 801 1969  L 953 1969  L 953 2063  L 801 2063  L 801 1969  " fill-rule="nonzero" fill="#ffffff" stroke="none" />
    <path d="M 888.61 1994  C 883.99 1994  880.36 1990.37  880.36 1985.75  C 880.36 1981.13  883.99 1977.5  888.61 1977.5  C 893.23 1977.5  896.86 1981.13  896.86 1985.75  C 896.86 1990.37  893.23 1994  888.61 1994  " fill-rule="nonzero" fill="#cccccc" stroke="none" />
    <path d="M 804 2060  L 804 2011.6  L 840.5 1989.6  L 891.6 2025.42857142857  L 920.8 2002.8  L 950 2025.42857142857  L 950 2060  L 804 2060  " fill-rule="nonzero" fill="#169bd5" stroke="none" />
  </g>
</svg>