<?xml version="1.0" encoding="utf-8"?>
<svg version="1.1" xmlns:xlink="http://www.w3.org/1999/xlink" width="15px" height="15px" xmlns="http://www.w3.org/2000/svg">
  <g transform="matrix(1 0 0 1 -786 -1775 )">
    <path d="M 793.5 1775  C 797.7 1775  801 1778.3  801 1782.5  C 801 1786.7  797.7 1790  793.5 1790  C 789.3 1790  786 1786.7  786 1782.5  C 786 1778.3  789.3 1775  793.5 1775  Z " fill-rule="nonzero" fill="#95f204" stroke="none" />
    <path d="M 793.5 1775.5  C 797.42 1775.5  800.5 1778.58  800.5 1782.5  C 800.5 1786.42  797.42 1789.5  793.5 1789.5  C 789.58 1789.5  786.5 1786.42  786.5 1782.5  C 786.5 1778.58  789.58 1775.5  793.5 1775.5  Z " stroke-width="1" stroke="#797979" fill="none" />
  </g>
</svg>