<?xml version="1.0" encoding="utf-8"?>
<svg version="1.1" xmlns:xlink="http://www.w3.org/1999/xlink" width="12px" height="12px" viewBox="3078 115  12 12" xmlns="http://www.w3.org/2000/svg">
  <path d="M 3084 115  C 3087.36 115  3090 117.64  3090 121  C 3090 124.36  3087.36 127  3084 127  C 3080.64 127  3078 124.36  3078 121  C 3078 117.64  3080.64 115  3084 115  Z " fill-rule="nonzero" fill="#f0f0f0" stroke="none" />
  <path d="M 3084 115.5  C 3087.08 115.5  3089.5 117.92  3089.5 121  C 3089.5 124.08  3087.08 126.5  3084 126.5  C 3080.92 126.5  3078.5 124.08  3078.5 121  C 3078.5 117.92  3080.92 115.5  3084 115.5  Z " stroke-width="1" stroke="#797979" fill="none" />
  <path d="M 3084 124  C 3082.32 124  3081 122.68  3081 121  C 3081 119.32  3082.32 118  3084 118  C 3085.68 118  3087 119.32  3087 121  C 3087 122.68  3085.68 124  3084 124  " fill-rule="nonzero" fill="#797979" stroke="none" />
</svg>