<?xml version="1.0" encoding="utf-8"?>
<svg version="1.1" xmlns:xlink="http://www.w3.org/1999/xlink" width="12px" height="12px" viewBox="2952 115  12 12" xmlns="http://www.w3.org/2000/svg">
  <path d="M 2958 115  C 2961.36 115  2964 117.64  2964 121  C 2964 124.36  2961.36 127  2958 127  C 2954.64 127  2952 124.36  2952 121  C 2952 117.64  2954.64 115  2958 115  Z " fill-rule="nonzero" fill="#f0f0f0" stroke="none" />
  <path d="M 2958 115.5  C 2961.08 115.5  2963.5 117.92  2963.5 121  C 2963.5 124.08  2961.08 126.5  2958 126.5  C 2954.92 126.5  2952.5 124.08  2952.5 121  C 2952.5 117.92  2954.92 115.5  2958 115.5  Z " stroke-width="1" stroke="#797979" fill="none" />
  <path d="M 2958 124  C 2956.32 124  2955 122.68  2955 121  C 2955 119.32  2956.32 118  2958 118  C 2959.68 118  2961 119.32  2961 121  C 2961 122.68  2959.68 124  2958 124  " fill-rule="nonzero" fill="#797979" stroke="none" />
</svg>