<?xml version="1.0" encoding="utf-8"?>
<svg version="1.1" xmlns:xlink="http://www.w3.org/1999/xlink" width="12px" height="12px" viewBox="2489 343  12 12" xmlns="http://www.w3.org/2000/svg">
  <path d="M 2495 343  C 2498.36 343  2501 345.64  2501 349  C 2501 352.36  2498.36 355  2495 355  C 2491.64 355  2489 352.36  2489 349  C 2489 345.64  2491.64 343  2495 343  Z " fill-rule="nonzero" fill="#f0f0f0" stroke="none" />
  <path d="M 2495 343.5  C 2498.08 343.5  2500.5 345.92  2500.5 349  C 2500.5 352.08  2498.08 354.5  2495 354.5  C 2491.92 354.5  2489.5 352.08  2489.5 349  C 2489.5 345.92  2491.92 343.5  2495 343.5  Z " stroke-width="1" stroke="#797979" fill="none" />
  <path d="M 2495 352  C 2493.32 352  2492 350.68  2492 349  C 2492 347.32  2493.32 346  2495 346  C 2496.68 346  2498 347.32  2498 349  C 2498 350.68  2496.68 352  2495 352  " fill-rule="nonzero" fill="#797979" stroke="none" />
</svg>