<?xml version="1.0" encoding="utf-8"?>
<svg version="1.1" xmlns:xlink="http://www.w3.org/1999/xlink" width="147px" height="111px" xmlns="http://www.w3.org/2000/svg">
  <g transform="matrix(1 0 0 1 -57 -790 )">
    <path d="M 57 790  L 204 790  L 204 901  L 57 901  L 57 790  " fill-rule="nonzero" fill="#cccccc" stroke="none" />
    <path d="M 65 798  L 196 798  L 196 893  L 65 893  L 65 798  " fill-rule="nonzero" fill="#ffffff" stroke="none" />
    <path d="M 141.765 823.3  C 137.103 823.3  133.44 819.637  133.44 814.975  C 133.44 810.313  137.103 806.65  141.765 806.65  C 146.427 806.65  150.09 810.313  150.09 814.975  C 150.09 819.637  146.427 823.3  141.765 823.3  " fill-rule="nonzero" fill="#cccccc" stroke="none" />
    <path d="M 68 890  L 68 841.05  L 99.25 818.8  L 143 849.677551020408  L 168 832.15  L 193 849.677551020408  L 193 890  L 68 890  " fill-rule="nonzero" fill="#169bd5" stroke="none" />
  </g>
</svg>