<?xml version="1.0" encoding="utf-8"?>
<svg version="1.1" xmlns:xlink="http://www.w3.org/1999/xlink" width="147px" height="111px" xmlns="http://www.w3.org/2000/svg">
  <g transform="matrix(1 0 0 1 -56 -462 )">
    <path d="M 56 462  L 203 462  L 203 573  L 56 573  L 56 462  " fill-rule="nonzero" fill="#cccccc" stroke="none" />
    <path d="M 64 470  L 195 470  L 195 565  L 64 565  L 64 470  " fill-rule="nonzero" fill="#ffffff" stroke="none" />
    <path d="M 140.765 495.3  C 136.103 495.3  132.44 491.637  132.44 486.975  C 132.44 482.313  136.103 478.65  140.765 478.65  C 145.427 478.65  149.09 482.313  149.09 486.975  C 149.09 491.637  145.427 495.3  140.765 495.3  " fill-rule="nonzero" fill="#cccccc" stroke="none" />
    <path d="M 67 562  L 67 513.05  L 98.25 490.8  L 142 521.677551020408  L 167 504.15  L 192 521.677551020408  L 192 562  L 67 562  " fill-rule="nonzero" fill="#169bd5" stroke="none" />
  </g>
</svg>