<?xml version="1.0" encoding="utf-8"?>
<svg version="1.1" xmlns:xlink="http://www.w3.org/1999/xlink" width="147px" height="158px" xmlns="http://www.w3.org/2000/svg">
  <g transform="matrix(1 0 0 1 -67 -1152 )">
    <path d="M 67 1152  L 214 1152  L 214 1310  L 67 1310  L 67 1152  " fill-rule="nonzero" fill="#cccccc" stroke="none" />
    <path d="M 77 1162  L 204 1162  L 204 1300  L 77 1300  L 77 1162  " fill-rule="nonzero" fill="#ffffff" stroke="none" />
    <path d="M 154.465 1197.75  C 148.291 1197.75  143.44 1192.899  143.44 1186.725  C 143.44 1180.551  148.291 1175.7  154.465 1175.7  C 160.639 1175.7  165.49 1180.551  165.49 1186.725  C 165.49 1192.899  160.639 1197.75  154.465 1197.75  " fill-rule="nonzero" fill="#cccccc" stroke="none" />
    <path d="M 81 1297  L 81 1224.95  L 111 1192.2  L 153 1218.4  L 177 1211.85  L 201 1218.4  L 201 1297  L 81 1297  " fill-rule="nonzero" fill="#169bd5" stroke="none" />
  </g>
</svg>