<?xml version="1.0" encoding="utf-8"?>
<svg version="1.1" xmlns:xlink="http://www.w3.org/1999/xlink" width="25px" height="27px" xmlns="http://www.w3.org/2000/svg">
  <g transform="matrix(1 0 0 1 -253 -20 )">
    <path d="M 20.5240885416667 15.416015625  C 20.7302517361111 15.193359375  20.8333333333333 14.9296875  20.8333333333333 14.625  L 20.8333333333333 12.375  C 20.8333333333333 12.0703125  20.7302517361111 11.806640625  20.5240885416667 11.583984375  C 20.3179253472222 11.361328125  20.0737847222222 11.25  19.7916666666667 11.25  L 11.62109375 11.25  L 14.697265625 7.927734375  C 14.9034288194444 7.705078125  15.0065104166667 7.44140625  15.0065104166667 7.13671875  C 15.0065104166667 6.83203125  14.9034288194444 6.568359375  14.697265625 6.345703125  L 13.2161458333333 4.74609375  C 13.0208333333333 4.53515625  12.7766927083333 4.4296875  12.4837239583333 4.4296875  C 12.1907552083333 4.4296875  11.9466145833333 4.53515625  11.7513020833333 4.74609375  L 5.859375 11.109375  L 4.37825520833333 12.708984375  C 4.18294270833333 12.919921875  4.08528645833333 13.18359375  4.08528645833333 13.5  C 4.08528645833333 13.81640625  4.18294270833333 14.080078125  4.37825520833333 14.291015625  L 5.859375 15.890625  L 11.7513020833333 22.25390625  C 11.9466145833333 22.46484375  12.1907552083333 22.5703125  12.4837239583333 22.5703125  C 12.7766927083333 22.5703125  13.0208333333333 22.46484375  13.2161458333333 22.25390625  L 14.697265625 20.654296875  C 14.892578125 20.443359375  14.990234375 20.1796875  14.990234375 19.86328125  C 14.990234375 19.546875  14.892578125 19.283203125  14.697265625 19.072265625  L 11.62109375 15.75  L 19.7916666666667 15.75  C 20.0737847222222 15.75  20.3179253472222 15.638671875  20.5240885416667 15.416015625  Z M 23.3235677083333 6.7236328125  C 24.4411892361111 8.7919921875  25 11.05078125  25 13.5  C 25 15.94921875  24.4411892361111 18.2080078125  23.3235677083333 20.2763671875  C 22.2059461805556 22.3447265625  20.6895616319444 23.982421875  18.7744140625 25.189453125  C 16.8592664930556 26.396484375  14.7677951388889 27  12.5 27  C 10.2322048611111 27  8.14073350694444 26.396484375  6.2255859375 25.189453125  C 4.31043836805556 23.982421875  2.79405381944444 22.3447265625  1.67643229166667 20.2763671875  C 0.558810763888889 18.2080078125  0 15.94921875  0 13.5  C 0 11.05078125  0.558810763888889 8.7919921875  1.67643229166667 6.7236328125  C 2.79405381944444 4.6552734375  4.31043836805556 3.017578125  6.2255859375 1.810546875  C 8.14073350694444 0.603515624999998  10.2322048611111 0  12.5 0  C 14.7677951388889 0  16.8592664930556 0.603515624999998  18.7744140625 1.810546875  C 20.6895616319444 3.017578125  22.2059461805556 4.6552734375  23.3235677083333 6.7236328125  Z " fill-rule="nonzero" fill="#000000" stroke="none" transform="matrix(1 0 0 1 253 20 )" />
  </g>
</svg>