<?xml version="1.0" encoding="utf-8"?>
<svg version="1.1" xmlns:xlink="http://www.w3.org/1999/xlink" width="1637px" height="10px" preserveAspectRatio="xMinYMid meet" viewBox="1857 707  1637 8" xmlns="http://www.w3.org/2000/svg">
  <path d="M 1862 655  L 1862 706  A 5 5 0 0 0 1867 711 L 3484 711  A 5 5 0 0 0 3489 706 L 3489 655  " stroke-width="2" stroke-dasharray="6,2" stroke="#70b603" fill="none" />
  <path d="M 1862 649  A 3.5 3.5 0 0 0 1858.5 652.5 A 3.5 3.5 0 0 0 1862 656 A 3.5 3.5 0 0 0 1865.5 652.5 A 3.5 3.5 0 0 0 1862 649 Z M 1862 651  A 1.5 1.5 0 0 1 1863.5 652.5 A 1.5 1.5 0 0 1 1862 654 A 1.5 1.5 0 0 1 1860.5 652.5 A 1.5 1.5 0 0 1 1862 651 Z M 3496.6 656  L 3489 649  L 3481.4 656  L 3496.6 656  Z M 3491.8 654  L 3486.2 654  L 3489 652  L 3491.8 654  Z " fill-rule="nonzero" fill="#70b603" stroke="none" />
</svg>