<?xml version="1.0" encoding="utf-8"?>
<svg version="1.1" xmlns:xlink="http://www.w3.org/1999/xlink" width="34px" height="10px" preserveAspectRatio="xMinYMid meet" viewBox="2451 347  34 8" xmlns="http://www.w3.org/2000/svg">
  <path d="M 2457 351  L 2474 351  " stroke-width="2" stroke-dasharray="6,2" stroke="#70b603" fill="none" />
  <path d="M 2454.5 347.5  A 3.5 3.5 0 0 0 2451 351 A 3.5 3.5 0 0 0 2454.5 354.5 A 3.5 3.5 0 0 0 2458 351 A 3.5 3.5 0 0 0 2454.5 347.5 Z M 2454.5 349.5  A 1.5 1.5 0 0 1 2456 351 A 1.5 1.5 0 0 1 2454.5 352.5 A 1.5 1.5 0 0 1 2453 351 A 1.5 1.5 0 0 1 2454.5 349.5 Z M 2473 358.6  L 2480 351  L 2473 343.4  L 2473 358.6  Z M 2475 353.8  L 2475 348.2  L 2477 351  L 2475 353.8  Z " fill-rule="nonzero" fill="#70b603" stroke="none" />
</svg>