<?xml version="1.0" encoding="utf-8"?>
<svg version="1.1" xmlns:xlink="http://www.w3.org/1999/xlink" width="12px" height="12px" viewBox="2502 215  12 12" xmlns="http://www.w3.org/2000/svg">
  <path d="M 2508 215  C 2511.36 215  2514 217.64  2514 221  C 2514 224.36  2511.36 227  2508 227  C 2504.64 227  2502 224.36  2502 221  C 2502 217.64  2504.64 215  2508 215  Z " fill-rule="nonzero" fill="#ffffff" stroke="none" />
  <path d="M 2508 215.5  C 2511.08 215.5  2513.5 217.92  2513.5 221  C 2513.5 224.08  2511.08 226.5  2508 226.5  C 2504.92 226.5  2502.5 224.08  2502.5 221  C 2502.5 217.92  2504.92 215.5  2508 215.5  Z " stroke-width="1" stroke="#797979" fill="none" />
  <path d="M 2508 224  C 2506.32 224  2505 222.68  2505 221  C 2505 219.32  2506.32 218  2508 218  C 2509.68 218  2511 219.32  2511 221  C 2511 222.68  2509.68 224  2508 224  " fill-rule="nonzero" fill="#797979" stroke="none" />
</svg>