<?xml version="1.0" encoding="utf-8"?>
<svg version="1.1" xmlns:xlink="http://www.w3.org/1999/xlink" width="45px" height="48px" xmlns="http://www.w3.org/2000/svg">
  <g transform="matrix(1 0 0 1 -501 -202 )">
    <path d="M 501 202  L 546 202  L 546 250  L 501 250  L 501 202  " fill-rule="nonzero" fill="#cccccc" stroke="none" />
    <path d="M 504 205  L 543 205  L 543 247  L 504 247  L 504 205  " fill-rule="nonzero" fill="#ffffff" stroke="none" />
    <path d="M 527.775 215.95  C 525.885 215.95  524.4 214.465  524.4 212.575  C 524.4 210.685  525.885 209.2  527.775 209.2  C 529.665 209.2  531.15 210.685  531.15 212.575  C 531.15 214.465  529.665 215.95  527.775 215.95  " fill-rule="nonzero" fill="#cccccc" stroke="none" />
    <path d="M 505 246  L 505 224  L 514.25 214  L 527.2 222  L 534.6 220  L 542 222  L 542 246  L 505 246  " fill-rule="nonzero" fill="#169bd5" stroke="none" />
  </g>
</svg>