<?xml version="1.0" encoding="utf-8"?>
<svg version="1.1" xmlns:xlink="http://www.w3.org/1999/xlink" width="21px" height="20px" preserveAspectRatio="xMinYMid meet" viewBox="377 238  21 18" xmlns="http://www.w3.org/2000/svg">
  <path d="M 390 247  L 420 247  A 5 5 0 0 1 425 252 L 425 404  A 5 5 0 0 0 430 409 L 460 409  " stroke-width="2" stroke-dasharray="6,2" stroke="#70b603" fill="none" />
  <path d="M 387.5 243.5  A 3.5 3.5 0 0 0 384 247 A 3.5 3.5 0 0 0 387.5 250.5 A 3.5 3.5 0 0 0 391 247 A 3.5 3.5 0 0 0 387.5 243.5 Z M 387.5 245.5  A 1.5 1.5 0 0 1 389 247 A 1.5 1.5 0 0 1 387.5 248.5 A 1.5 1.5 0 0 1 386 247 A 1.5 1.5 0 0 1 387.5 245.5 Z M 459 416.6  L 466 409  L 459 401.4  L 459 416.6  Z M 461 411.8  L 461 406.2  L 463 409  L 461 411.8  Z " fill-rule="nonzero" fill="#70b603" stroke="none" />
</svg>