<?xml version="1.0" encoding="utf-8"?>
<svg version="1.1" xmlns:xlink="http://www.w3.org/1999/xlink" width="12px" height="12px" viewBox="481 343  12 12" xmlns="http://www.w3.org/2000/svg">
  <path d="M 487 343  C 490.36 343  493 345.64  493 349  C 493 352.36  490.36 355  487 355  C 483.64 355  481 352.36  481 349  C 481 345.64  483.64 343  487 343  Z " fill-rule="nonzero" fill="#ffffff" stroke="none" />
  <path d="M 487 343.5  C 490.08 343.5  492.5 345.92  492.5 349  C 492.5 352.08  490.08 354.5  487 354.5  C 483.92 354.5  481.5 352.08  481.5 349  C 481.5 345.92  483.92 343.5  487 343.5  Z " stroke-width="1" stroke="#797979" fill="none" />
  <path d="M 487 352  C 485.32 352  484 350.68  484 349  C 484 347.32  485.32 346  487 346  C 488.68 346  490 347.32  490 349  C 490 350.68  488.68 352  487 352  " fill-rule="nonzero" fill="#797979" stroke="none" />
</svg>