<?xml version="1.0" encoding="utf-8"?>
<svg version="1.1" xmlns:xlink="http://www.w3.org/1999/xlink" width="12px" height="12px" viewBox="481 280  12 12" xmlns="http://www.w3.org/2000/svg">
  <path d="M 487 280  C 490.36 280  493 282.64  493 286  C 493 289.36  490.36 292  487 292  C 483.64 292  481 289.36  481 286  C 481 282.64  483.64 280  487 280  Z " fill-rule="nonzero" fill="#f0f0f0" stroke="none" />
  <path d="M 487 280.5  C 490.08 280.5  492.5 282.92  492.5 286  C 492.5 289.08  490.08 291.5  487 291.5  C 483.92 291.5  481.5 289.08  481.5 286  C 481.5 282.92  483.92 280.5  487 280.5  Z " stroke-width="1" stroke="#797979" fill="none" />
  <path d="M 487 289  C 485.32 289  484 287.68  484 286  C 484 284.32  485.32 283  487 283  C 488.68 283  490 284.32  490 286  C 490 287.68  488.68 289  487 289  " fill-rule="nonzero" fill="#797979" stroke="none" />
</svg>