<?xml version="1.0" encoding="utf-8"?>
<svg version="1.1" xmlns:xlink="http://www.w3.org/1999/xlink" width="133px" height="103px" xmlns="http://www.w3.org/2000/svg">
  <g transform="matrix(1 0 0 1 -1088 -433 )">
    <path d="M 1088 433  L 1221 433  L 1221 536  L 1088 536  L 1088 433  " fill-rule="nonzero" fill="#cccccc" stroke="none" />
    <path d="M 1095 440  L 1214 440  L 1214 529  L 1095 529  L 1095 440  " fill-rule="nonzero" fill="#ffffff" stroke="none" />
    <path d="M 1164.885 463.9  C 1160.559 463.9  1157.16 460.501  1157.16 456.175  C 1157.16 451.849  1160.559 448.45  1164.885 448.45  C 1169.211 448.45  1172.61 451.849  1172.61 456.175  C 1172.61 460.501  1169.211 463.9  1164.885 463.9  " fill-rule="nonzero" fill="#cccccc" stroke="none" />
    <path d="M 1098 527  L 1098 480.8  L 1126.5 459.8  L 1166.4 487.968421052632  L 1189.2 472.4  L 1212 487.968421052632  L 1212 527  L 1098 527  " fill-rule="nonzero" fill="#169bd5" stroke="none" />
  </g>
</svg>