<?xml version="1.0" encoding="utf-8"?>
<svg version="1.1" xmlns:xlink="http://www.w3.org/1999/xlink" width="93px" height="70px" xmlns="http://www.w3.org/2000/svg">
  <g transform="matrix(1 0 0 1 -1131 -261 )">
    <path d="M 1131 261  L 1224 261  L 1224 331  L 1131 331  L 1131 261  " fill-rule="nonzero" fill="#cccccc" stroke="none" />
    <path d="M 1136 266  L 1219 266  L 1219 326  L 1136 326  L 1136 266  " fill-rule="nonzero" fill="#ffffff" stroke="none" />
    <path d="M 1184.61 282  C 1181.67 282  1179.36 279.69  1179.36 276.75  C 1179.36 273.81  1181.67 271.5  1184.61 271.5  C 1187.55 271.5  1189.86 273.81  1189.86 276.75  C 1189.86 279.69  1187.55 282  1184.61 282  " fill-rule="nonzero" fill="#cccccc" stroke="none" />
    <path d="M 1138 324  L 1138 293.2  L 1157.75 279.2  L 1185.4 298.709677419355  L 1201.2 287.6  L 1217 298.709677419355  L 1217 324  L 1138 324  " fill-rule="nonzero" fill="#169bd5" stroke="none" />
  </g>
</svg>