<?xml version="1.0" encoding="utf-8"?>
<svg version="1.1" xmlns:xlink="http://www.w3.org/1999/xlink" width="25px" height="27px" xmlns="http://www.w3.org/2000/svg">
  <g transform="matrix(1 0 0 1 -88 -119 )">
    <path d="M 100.5 119  C 107.5 119  113 124.94  113 132.5  C 113 140.06  107.5 146  100.5 146  C 93.5 146  88 140.06  88 132.5  C 88 124.94  93.5 119  100.5 119  Z " fill-rule="nonzero" fill="#ffffff" stroke="none" />
    <path d="M 100.5 119.5  C 107.22 119.5  112.5 125.22  112.5 132.5  C 112.5 139.78  107.22 145.5  100.5 145.5  C 93.78 145.5  88.5 139.78  88.5 132.5  C 88.5 125.22  93.78 119.5  100.5 119.5  Z " stroke-width="1" stroke="#797979" fill="none" />
  </g>
</svg>