<?xml version="1.0" encoding="utf-8"?>
<svg version="1.1" xmlns:xlink="http://www.w3.org/1999/xlink" width="21px" height="20px" preserveAspectRatio="xMinYMid meet" viewBox="1297 174  21 18" xmlns="http://www.w3.org/2000/svg">
  <path d="M 1310 183  L 1548 183  A 5 5 0 0 1 1553 188 L 1553 427  A 5 5 0 0 0 1558 432 L 1796 432  " stroke-width="2" stroke-dasharray="6,2" stroke="#70b603" fill="none" />
  <path d="M 1307.5 179.5  A 3.5 3.5 0 0 0 1304 183 A 3.5 3.5 0 0 0 1307.5 186.5 A 3.5 3.5 0 0 0 1311 183 A 3.5 3.5 0 0 0 1307.5 179.5 Z M 1307.5 181.5  A 1.5 1.5 0 0 1 1309 183 A 1.5 1.5 0 0 1 1307.5 184.5 A 1.5 1.5 0 0 1 1306 183 A 1.5 1.5 0 0 1 1307.5 181.5 Z M 1795 439.6  L 1802 432  L 1795 424.4  L 1795 439.6  Z M 1797 434.8  L 1797 429.2  L 1799 432  L 1797 434.8  Z " fill-rule="nonzero" fill="#70b603" stroke="none" />
</svg>