<?xml version="1.0" encoding="utf-8"?>
<svg version="1.1" xmlns:xlink="http://www.w3.org/1999/xlink" width="12px" height="12px" viewBox="481 218  12 12" xmlns="http://www.w3.org/2000/svg">
  <path d="M 487 218  C 490.36 218  493 220.64  493 224  C 493 227.36  490.36 230  487 230  C 483.64 230  481 227.36  481 224  C 481 220.64  483.64 218  487 218  Z " fill-rule="nonzero" fill="#ffffff" stroke="none" />
  <path d="M 487 218.5  C 490.08 218.5  492.5 220.92  492.5 224  C 492.5 227.08  490.08 229.5  487 229.5  C 483.92 229.5  481.5 227.08  481.5 224  C 481.5 220.92  483.92 218.5  487 218.5  Z " stroke-width="1" stroke="#797979" fill="none" />
  <path d="M 487 227  C 485.32 227  484 225.68  484 224  C 484 222.32  485.32 221  487 221  C 488.68 221  490 222.32  490 224  C 490 225.68  488.68 227  487 227  " fill-rule="nonzero" fill="#797979" stroke="none" />
</svg>