<?xml version="1.0" encoding="utf-8"?>
<svg version="1.1" xmlns:xlink="http://www.w3.org/1999/xlink" width="82px" height="10px" preserveAspectRatio="xMinYMid meet" viewBox="3128 386  82 8" xmlns="http://www.w3.org/2000/svg">
  <path d="M 3062 193  L 3128 193  A 5 5 0 0 1 3133 198 L 3133 385  A 5 5 0 0 0 3138 390 L 3204 390  " stroke-width="2" stroke-dasharray="6,2" stroke="#70b603" fill="none" />
  <path d="M 3059.5 189.5  A 3.5 3.5 0 0 0 3056 193 A 3.5 3.5 0 0 0 3059.5 196.5 A 3.5 3.5 0 0 0 3063 193 A 3.5 3.5 0 0 0 3059.5 189.5 Z M 3059.5 191.5  A 1.5 1.5 0 0 1 3061 193 A 1.5 1.5 0 0 1 3059.5 194.5 A 1.5 1.5 0 0 1 3058 193 A 1.5 1.5 0 0 1 3059.5 191.5 Z M 3203 397.6  L 3210 390  L 3203 382.4  L 3203 397.6  Z M 3205 392.8  L 3205 387.2  L 3207 390  L 3205 392.8  Z " fill-rule="nonzero" fill="#70b603" stroke="none" />
</svg>