<?xml version="1.0" encoding="utf-8"?>
<svg version="1.1" xmlns:xlink="http://www.w3.org/1999/xlink" width="7px" height="12px" xmlns="http://www.w3.org/2000/svg">
  <g transform="matrix(1 0 0 1 -3222 -116 )">
    <path d="M 6.46016620982778 11.823469868608  C 6.37325012706414 11.9086121404474  6.25938840803673 11.9511832830256  6.14552668900932 11.9511832830256  C 6.0316649699818 11.9511832830256  5.91780325095439 11.9086121404474  5.83088716819076 11.823469868608  L 0.194112881192268 6.30173179154828  C 0.0202807428533731 6.13158351828835  0.0202807428533731 5.85544346590911  0.194112881192268 5.68530881569601  L 5.83088716819076 0.163557102272729  C 6.00471930652965 -0.00672744140623698  6.28632015103429 -0.00672744140623698  6.46015228937328 0.163557102272729  C 6.63398442771228 0.333705375532661  6.63398442771228 0.609845427911945  6.46015228937328 0.779980078125001  L 1.13801752319335 5.99351348544035  L 6.46016620982778 11.2070468927557  C 6.63399834816677 11.3771951660156  6.63399834816677 11.6533352183949  6.46016620982778 11.823469868608  Z " fill-rule="nonzero" fill="#1989fa" stroke="none" transform="matrix(1 0 0 1 3222 116 )" />
  </g>
</svg>