<?xml version="1.0" encoding="utf-8"?>
<svg version="1.1" xmlns:xlink="http://www.w3.org/1999/xlink" width="50px" height="18px" xmlns="http://www.w3.org/2000/svg">
  <g transform="matrix(1 0 0 1 -392 -1249 )">
    <path d="M 49.4698660714286 7.734375  C 49.8232886904762 8.090625  50 8.5125  50 9  C 50 9.4875  49.8232886904762 9.909375  49.4698660714286 10.265625  L 42.3270089285714 17.465625  C 41.9735863095238 17.821875  41.5550595238095 18  41.0714285714286 18  C 40.5877976190476 18  40.1692708333333 17.821875  39.8158482142857 17.465625  C 39.4624255952381 17.109375  39.2857142857143 16.6875  39.2857142857143 16.2  L 39.2857142857143 12.6  L 10.7142857142857 12.6  L 10.7142857142857 16.2  C 10.7142857142857 16.6875  10.5375744047619 17.109375  10.1841517857143 17.465625  C 9.83072916666667 17.821875  9.41220238095238 18  8.92857142857143 18  C 8.44494047619048 18  8.02641369047619 17.821875  7.67299107142857 17.465625  L 0.530133928571429 10.265625  C 0.17671130952381 9.909375  0 9.4875  0 9  C 0 8.5125  0.17671130952381 8.090625  0.530133928571429 7.734375  L 7.67299107142857 0.534375  C 8.02641369047619 0.178124999999998  8.44494047619048 0  8.92857142857143 0  C 9.41220238095238 0  9.83072916666667 0.178124999999998  10.1841517857143 0.534375  C 10.5375744047619 0.890624999999999  10.7142857142857 1.3125  10.7142857142857 1.8  L 10.7142857142857 5.4  L 39.2857142857143 5.4  L 39.2857142857143 1.8  C 39.2857142857143 1.3125  39.4624255952381 0.890624999999999  39.8158482142857 0.534375  C 40.1692708333333 0.178124999999998  40.5877976190476 0  41.0714285714286 0  C 41.5550595238095 0  41.9735863095238 0.178124999999998  42.3270089285714 0.534375  L 49.4698660714286 7.734375  Z " fill-rule="nonzero" fill="#000000" stroke="none" transform="matrix(1 0 0 1 392 1249 )" />
  </g>
</svg>