<?xml version="1.0" encoding="utf-8"?>
<svg version="1.1" xmlns:xlink="http://www.w3.org/1999/xlink" width="28px" height="24px" xmlns="http://www.w3.org/2000/svg">
  <g transform="matrix(1 0 0 1 -115 -203 )">
    <path d="M 18.5026041666667 19.859375  C 18.6119791666667 19.765625  18.6666666666667 19.6458333333333  18.6666666666667 19.5  L 18.6666666666667 17  C 18.6666666666667 16.8541666666667  18.6119791666667 16.734375  18.5026041666667 16.640625  C 18.3932291666667 16.546875  18.2534722222222 16.5  18.0833333333333 16.5  L 16.3333333333333 16.5  L 16.3333333333333 8.5  C 16.3333333333333 8.35416666666667  16.2786458333333 8.234375  16.1692708333333 8.140625  C 16.0598958333333 8.046875  15.9201388888889 8  15.75 8  L 9.91666666666667 8  C 9.74652777777778 8  9.60677083333333 8.046875  9.49739583333333 8.140625  C 9.38802083333333 8.234375  9.33333333333333 8.35416666666667  9.33333333333333 8.5  L 9.33333333333333 11  C 9.33333333333333 11.1458333333333  9.38802083333333 11.265625  9.49739583333333 11.359375  C 9.60677083333333 11.453125  9.74652777777778 11.5  9.91666666666667 11.5  L 11.6666666666667 11.5  L 11.6666666666667 16.5  L 9.91666666666667 16.5  C 9.74652777777778 16.5  9.60677083333333 16.546875  9.49739583333333 16.640625  C 9.38802083333333 16.734375  9.33333333333333 16.8541666666667  9.33333333333333 17  L 9.33333333333333 19.5  C 9.33333333333333 19.6458333333333  9.38802083333333 19.765625  9.49739583333333 19.859375  C 9.60677083333333 19.953125  9.74652777777778 20  9.91666666666667 20  L 18.0833333333333 20  C 18.2534722222222 20  18.3932291666667 19.953125  18.5026041666667 19.859375  Z M 16.1692708333333 5.859375  C 16.2786458333333 5.765625  16.3333333333333 5.64583333333333  16.3333333333333 5.5  L 16.3333333333333 3  C 16.3333333333333 2.85416666666667  16.2786458333333 2.734375  16.1692708333333 2.640625  C 16.0598958333333 2.546875  15.9201388888889 2.5  15.75 2.5  L 12.25 2.5  C 12.0798611111111 2.5  11.9401041666667 2.546875  11.8307291666667 2.640625  C 11.7213541666667 2.734375  11.6666666666667 2.85416666666667  11.6666666666667 3  L 11.6666666666667 5.5  C 11.6666666666667 5.64583333333333  11.7213541666667 5.765625  11.8307291666667 5.859375  C 11.9401041666667 5.953125  12.0798611111111 6  12.25 6  L 15.75 6  C 15.9201388888889 6  16.0598958333333 5.953125  16.1692708333333 5.859375  Z M 26.1223958333333 5.9765625  C 27.3741319444444 7.81510416666666  28 9.82291666666666  28 12  C 28 14.1770833333333  27.3741319444444 16.1848958333333  26.1223958333333 18.0234375  C 24.8706597222222 19.8619791666667  23.1723090277778 21.3177083333333  21.02734375 22.390625  C 18.8823784722222 23.4635416666667  16.5399305555556 24  14 24  C 11.4600694444444 24  9.11762152777778 23.4635416666667  6.97265625 22.390625  C 4.82769097222222 21.3177083333333  3.12934027777778 19.8619791666667  1.87760416666667 18.0234375  C 0.625868055555555 16.1848958333333  0 14.1770833333333  0 12  C 0 9.82291666666666  0.625868055555555 7.81510416666666  1.87760416666667 5.9765625  C 3.12934027777778 4.13802083333333  4.82769097222222 2.68229166666666  6.97265625 1.609375  C 9.11762152777778 0.536458333333331  11.4600694444444 0  14 0  C 16.5399305555556 0  18.8823784722222 0.536458333333331  21.02734375 1.609375  C 23.1723090277778 2.68229166666666  24.8706597222222 4.13802083333333  26.1223958333333 5.9765625  Z " fill-rule="nonzero" fill="#000000" stroke="none" transform="matrix(1 0 0 1 115 203 )" />
  </g>
</svg>