<?xml version="1.0" encoding="utf-8"?>
<svg version="1.1" xmlns:xlink="http://www.w3.org/1999/xlink" width="37px" height="38px" xmlns="http://www.w3.org/2000/svg">
  <defs>
    <mask fill="white" id="clip2478">
      <path d="M 37.5 103  C 27.2325 103  19 94.7675  19 84.5  L 19 83.5  C 19 73.2325  27.2325 65  37.5 65  L 37.5 65  C 47.7675 65  56 73.2325  56 83.5  L 56 84.5  C 56 94.7675  47.7675 103  37.5 103  " fill-rule="evenodd" />
    </mask>
  </defs>
  <g transform="matrix(1 0 0 1 -19 -65 )">
    <path d="M 19 65  L 56 65  L 56 103  L 19 103  L 19 65  " fill-rule="nonzero" fill="#cccccc" stroke="none" mask="url(#clip2478)" />
    <path d="M 22 68  L 53 68  L 53 100  L 22 100  L 22 68  " fill-rule="nonzero" fill="#ffffff" stroke="none" mask="url(#clip2478)" />
    <path d="M 41.015 76.25  C 39.461 76.25  38.24 75.029  38.24 73.475  C 38.24 71.921  39.461 70.7  41.015 70.7  C 42.569 70.7  43.79 71.921  43.79 73.475  C 43.79 75.029  42.569 76.25  41.015 76.25  " fill-rule="nonzero" fill="#cccccc" stroke="none" mask="url(#clip2478)" />
    <path d="M 23 99  L 23 82.5  L 30.25 75  L 40.4 81  L 46.2 79.5  L 52 81  L 52 99  L 23 99  " fill-rule="nonzero" fill="#169bd5" stroke="none" mask="url(#clip2478)" />
  </g>
</svg>