<?xml version="1.0" encoding="utf-8"?>
<svg version="1.1" xmlns:xlink="http://www.w3.org/1999/xlink" width="13px" height="12px" xmlns="http://www.w3.org/2000/svg">
  <g transform="matrix(1 0 0 1 -1806 -244 )">
    <path d="M 12.0025111607143 11.0792410714286  C 12.0484561011905 11.0368303571429  12.0714285714286 10.9866071428571  12.0714285714286 10.9285714285714  L 12.0714285714286 3.64285714285714  C 12.0714285714286 3.58482142857143  12.0484561011905 3.53459821428571  12.0025111607143 3.4921875  C 11.9565662202381 3.44977678571428  11.9021577380952 3.42857142857143  11.8392857142857 3.42857142857143  L 3.94642857142857 3.42857142857143  C 3.88355654761905 3.42857142857143  3.82914806547619 3.44977678571428  3.783203125 3.4921875  C 3.73725818452381 3.53459821428571  3.71428571428571 3.58482142857143  3.71428571428571 3.64285714285714  L 3.71428571428571 10.9285714285714  C 3.71428571428571 10.9866071428571  3.73725818452381 11.0368303571429  3.783203125 11.0792410714286  C 3.82914806547619 11.1216517857143  3.88355654761905 11.1428571428571  3.94642857142857 11.1428571428571  L 11.8392857142857 11.1428571428571  C 11.9021577380952 11.1428571428571  11.9565662202381 11.1216517857143  12.0025111607143 11.0792410714286  Z M 12.6590401785714 2.88616071428571  C 12.8863467261905 3.09598214285714  13 3.34821428571429  13 3.64285714285714  L 13 10.9285714285714  C 13 11.2232142857143  12.8863467261905 11.4754464285714  12.6590401785714 11.6852678571429  C 12.4317336309524 11.8950892857143  12.1584821428571 12  11.8392857142857 12  L 3.94642857142857 12  C 3.62723214285714 12  3.35398065476191 11.8950892857143  3.12667410714286 11.6852678571429  C 2.89936755952381 11.4754464285714  2.78571428571429 11.2232142857143  2.78571428571429 10.9285714285714  L 2.78571428571429 3.64285714285714  C 2.78571428571429 3.34821428571429  2.89936755952381 3.09598214285714  3.12667410714286 2.88616071428571  C 3.35398065476191 2.67633928571428  3.62723214285714 2.57142857142857  3.94642857142857 2.57142857142857  L 11.8392857142857 2.57142857142857  C 12.1584821428571 2.57142857142857  12.4317336309524 2.67633928571428  12.6590401785714 2.88616071428571  Z M 9.87332589285714 0.314732142857143  C 10.1006324404762 0.524553571428571  10.2142857142857 0.776785714285715  10.2142857142857 1.07142857142857  L 10.2142857142857 2.14285714285714  L 9.28571428571429 2.14285714285714  L 9.28571428571429 1.07142857142857  C 9.28571428571429 1.01339285714286  9.26274181547619 0.963169642857142  9.216796875 0.920758928571428  C 9.17085193452381 0.878348214285713  9.11644345238095 0.857142857142857  9.05357142857143 0.857142857142857  L 1.16071428571429 0.857142857142857  C 1.09784226190476 0.857142857142857  1.0434337797619 0.878348214285713  0.997488839285714 0.920758928571428  C 0.951543898809524 0.963169642857142  0.928571428571428 1.01339285714286  0.928571428571428 1.07142857142857  L 0.928571428571428 8.35714285714286  C 0.928571428571428 8.41517857142857  0.951543898809524 8.46540178571428  0.997488839285714 8.5078125  C 1.0434337797619 8.55022321428571  1.09784226190476 8.57142857142857  1.16071428571429 8.57142857142857  L 2.32142857142857 8.57142857142857  L 2.32142857142857 9.42857142857143  L 1.16071428571429 9.42857142857143  C 0.841517857142857 9.42857142857143  0.568266369047619 9.32366071428571  0.340959821428571 9.11383928571429  C 0.113653273809524 8.90401785714286  0 8.65178571428571  0 8.35714285714286  L 0 1.07142857142857  C 0 0.776785714285715  0.113653273809524 0.524553571428571  0.340959821428571 0.314732142857143  C 0.568266369047619 0.104910714285714  0.841517857142857 0  1.16071428571429 0  L 9.05357142857143 0  C 9.37276785714286 0  9.64601934523809 0.104910714285714  9.87332589285714 0.314732142857143  Z " fill-rule="nonzero" fill="#000000" stroke="none" transform="matrix(1 0 0 1 1806 244 )" />
  </g>
</svg>