<?xml version="1.0" encoding="utf-8"?>
<svg version="1.1" xmlns:xlink="http://www.w3.org/1999/xlink" width="12px" height="12px" viewBox="286 863  12 12" xmlns="http://www.w3.org/2000/svg">
  <path d="M 292 863  C 295.36 863  298 865.64  298 869  C 298 872.36  295.36 875  292 875  C 288.64 875  286 872.36  286 869  C 286 865.64  288.64 863  292 863  Z " fill-rule="nonzero" fill="#f0f0f0" stroke="none" />
  <path d="M 292 863.5  C 295.08 863.5  297.5 865.92  297.5 869  C 297.5 872.08  295.08 874.5  292 874.5  C 288.92 874.5  286.5 872.08  286.5 869  C 286.5 865.92  288.92 863.5  292 863.5  Z " stroke-width="1" stroke="#797979" fill="none" />
  <path d="M 292 872  C 290.32 872  289 870.68  289 869  C 289 867.32  290.32 866  292 866  C 293.68 866  295 867.32  295 869  C 295 870.68  293.68 872  292 872  " fill-rule="nonzero" fill="#797979" stroke="none" />
</svg>