<?xml version="1.0" encoding="utf-8"?>
<svg version="1.1" xmlns:xlink="http://www.w3.org/1999/xlink" width="12px" height="12px" viewBox="868 876  12 12" xmlns="http://www.w3.org/2000/svg">
  <path d="M 874 876  C 877.36 876  880 878.64  880 882  C 880 885.36  877.36 888  874 888  C 870.64 888  868 885.36  868 882  C 868 878.64  870.64 876  874 876  Z " fill-rule="nonzero" fill="#ffffff" stroke="none" />
  <path d="M 874 876.5  C 877.08 876.5  879.5 878.92  879.5 882  C 879.5 885.08  877.08 887.5  874 887.5  C 870.92 887.5  868.5 885.08  868.5 882  C 868.5 878.92  870.92 876.5  874 876.5  Z " stroke-width="1" stroke="#797979" fill="none" />
  <path d="M 874 885  C 872.32 885  871 883.68  871 882  C 871 880.32  872.32 879  874 879  C 875.68 879  877 880.32  877 882  C 877 883.68  875.68 885  874 885  " fill-rule="nonzero" fill="#797979" stroke="none" />
</svg>