<?xml version="1.0" encoding="utf-8"?>
<svg version="1.1" xmlns:xlink="http://www.w3.org/1999/xlink" width="12px" height="12px" viewBox="768 876  12 12" xmlns="http://www.w3.org/2000/svg">
  <path d="M 774 876  C 777.36 876  780 878.64  780 882  C 780 885.36  777.36 888  774 888  C 770.64 888  768 885.36  768 882  C 768 878.64  770.64 876  774 876  Z " fill-rule="nonzero" fill="#ffffff" stroke="none" />
  <path d="M 774 876.5  C 777.08 876.5  779.5 878.92  779.5 882  C 779.5 885.08  777.08 887.5  774 887.5  C 770.92 887.5  768.5 885.08  768.5 882  C 768.5 878.92  770.92 876.5  774 876.5  Z " stroke-width="1" stroke="#797979" fill="none" />
  <path d="M 774 885  C 772.32 885  771 883.68  771 882  C 771 880.32  772.32 879  774 879  C 775.68 879  777 880.32  777 882  C 777 883.68  775.68 885  774 885  " fill-rule="nonzero" fill="#797979" stroke="none" />
</svg>