<?xml version="1.0" encoding="utf-8"?>
<svg version="1.1" xmlns:xlink="http://www.w3.org/1999/xlink" width="12px" height="12px" viewBox="1254 876  12 12" xmlns="http://www.w3.org/2000/svg">
  <path d="M 1260 876  C 1263.36 876  1266 878.64  1266 882  C 1266 885.36  1263.36 888  1260 888  C 1256.64 888  1254 885.36  1254 882  C 1254 878.64  1256.64 876  1260 876  Z " fill-rule="nonzero" fill="#ffffff" stroke="none" />
  <path d="M 1260 876.5  C 1263.08 876.5  1265.5 878.92  1265.5 882  C 1265.5 885.08  1263.08 887.5  1260 887.5  C 1256.92 887.5  1254.5 885.08  1254.5 882  C 1254.5 878.92  1256.92 876.5  1260 876.5  Z " stroke-width="1" stroke="#797979" fill="none" />
  <path d="M 1260 885  C 1258.32 885  1257 883.68  1257 882  C 1257 880.32  1258.32 879  1260 879  C 1261.68 879  1263 880.32  1263 882  C 1263 883.68  1261.68 885  1260 885  " fill-rule="nonzero" fill="#797979" stroke="none" />
</svg>