<?xml version="1.0" encoding="utf-8"?>
<svg version="1.1" xmlns:xlink="http://www.w3.org/1999/xlink" width="12px" height="12px" viewBox="1358 876  12 12" xmlns="http://www.w3.org/2000/svg">
  <path d="M 1364 876  C 1367.36 876  1370 878.64  1370 882  C 1370 885.36  1367.36 888  1364 888  C 1360.64 888  1358 885.36  1358 882  C 1358 878.64  1360.64 876  1364 876  Z " fill-rule="nonzero" fill="#ffffff" stroke="none" />
  <path d="M 1364 876.5  C 1367.08 876.5  1369.5 878.92  1369.5 882  C 1369.5 885.08  1367.08 887.5  1364 887.5  C 1360.92 887.5  1358.5 885.08  1358.5 882  C 1358.5 878.92  1360.92 876.5  1364 876.5  Z " stroke-width="1" stroke="#797979" fill="none" />
  <path d="M 1364 885  C 1362.32 885  1361 883.68  1361 882  C 1361 880.32  1362.32 879  1364 879  C 1365.68 879  1367 880.32  1367 882  C 1367 883.68  1365.68 885  1364 885  " fill-rule="nonzero" fill="#797979" stroke="none" />
</svg>