<?xml version="1.0" encoding="utf-8"?>
<svg version="1.1" xmlns:xlink="http://www.w3.org/1999/xlink" width="13px" height="10px" xmlns="http://www.w3.org/2000/svg">
  <g transform="matrix(1 0 0 1 -71 -507 )">
    <path d="M 8.03190104166667 3.82161458333333  C 8.455078125 4.14713541666667  8.66666666666667 4.53993055555555  8.66666666666667 5  C 8.66666666666667 5.46006944444444  8.455078125 5.85286458333333  8.03190104166667 6.17838541666667  C 7.60872395833333 6.50390625  7.09809027777778 6.66666666666667  6.5 6.66666666666667  C 5.90190972222222 6.66666666666667  5.39127604166667 6.50390625  4.96809895833333 6.17838541666667  C 4.544921875 5.85286458333333  4.33333333333333 5.46006944444444  4.33333333333333 5  C 4.33333333333333 4.53993055555555  4.544921875 4.14713541666667  4.96809895833333 3.82161458333333  C 5.39127604166667 3.49609375  5.90190972222222 3.33333333333333  6.5 3.33333333333333  C 7.09809027777778 3.33333333333333  7.60872395833333 3.49609375  8.03190104166667 3.82161458333333  Z M 8.810546875 1.93359375  C 8.10525173611111 1.61675347222222  7.33506944444444 1.45833333333333  6.5 1.45833333333333  C 5.66493055555556 1.45833333333333  4.89474826388889 1.61675347222222  4.189453125 1.93359375  C 3.48415798611111 2.25043402777778  2.92556423611111 2.68012152777778  2.513671875 3.22265625  C 2.10177951388889 3.76519097222222  1.89583333333333 4.35763888888889  1.89583333333333 5  C 1.89583333333333 5.64236111111111  2.10177951388889 6.23480902777778  2.513671875 6.77734375  C 2.92556423611111 7.31987847222222  3.48415798611111 7.74956597222222  4.189453125 8.06640625  C 4.89474826388889 8.38324652777778  5.66493055555556 8.54166666666667  6.5 8.54166666666667  C 7.33506944444444 8.54166666666667  8.10525173611111 8.38324652777778  8.810546875 8.06640625  C 9.51584201388889 7.74956597222222  10.0744357638889 7.31987847222222  10.486328125 6.77734375  C 10.8982204861111 6.23480902777778  11.1041666666667 5.64236111111111  11.1041666666667 5  C 11.1041666666667 4.35763888888889  10.8982204861111 3.76519097222222  10.486328125 3.22265625  C 10.0744357638889 2.68012152777778  9.51584201388889 2.25043402777778  8.810546875 1.93359375  Z M 12.1282552083333 2.490234375  C 12.7094184027778 3.25629340277778  13 4.09288194444444  13 5  C 13 5.90711805555556  12.7094184027778 6.74370659722222  12.1282552083333 7.509765625  C 11.5470920138889 8.27582465277778  10.7585720486111 8.88237847222222  9.7626953125 9.32942708333333  C 8.76681857638889 9.77647569444444  7.67925347222222 10  6.5 10  C 5.32074652777778 10  4.23318142361111 9.77647569444444  3.2373046875 9.32942708333333  C 2.24142795138889 8.88237847222222  1.45290798611111 8.27582465277778  0.871744791666667 7.509765625  C 0.290581597222222 6.74370659722222  0 5.90711805555556  0 5  C 0 4.09288194444444  0.290581597222222 3.25629340277778  0.871744791666667 2.490234375  C 1.45290798611111 1.72417534722222  2.24142795138889 1.11762152777778  3.2373046875 0.670572916666666  C 4.23318142361111 0.223524305555555  5.32074652777778 0  6.5 0  C 7.67925347222222 0  8.76681857638889 0.223524305555555  9.7626953125 0.670572916666666  C 10.7585720486111 1.11762152777778  11.5470920138889 1.72417534722222  12.1282552083333 2.490234375  Z " fill-rule="nonzero" fill="#000000" stroke="none" transform="matrix(1 0 0 1 71 507 )" />
  </g>
</svg>