<?xml version="1.0" encoding="utf-8"?>
<svg version="1.1" xmlns:xlink="http://www.w3.org/1999/xlink" width="28px" height="25px" xmlns="http://www.w3.org/2000/svg">
  <g transform="matrix(1 0 0 1 -310 -55 )">
    <path d="M 17.171875 15.33203125  C 18.6470352564103 14.0149238782051  19.3846153846154 12.4298878205128  19.3846153846154 10.5769230769231  C 19.3846153846154 8.72395833333333  18.6470352564103 7.13892227564102  17.171875 5.82181490384615  C 15.6967147435897 4.50470753205128  13.9214743589744 3.84615384615385  11.8461538461538 3.84615384615385  C 9.77083333333333 3.84615384615385  7.99559294871795 4.50470753205128  6.52043269230769 5.82181490384615  C 5.04527243589744 7.13892227564102  4.30769230769231 8.72395833333333  4.30769230769231 10.5769230769231  C 4.30769230769231 12.4298878205128  5.04527243589744 14.0149238782051  6.52043269230769 15.33203125  C 7.99559294871795 16.6491386217949  9.77083333333333 17.3076923076923  11.8461538461538 17.3076923076923  C 13.9214743589744 17.3076923076923  15.6967147435897 16.6491386217949  17.171875 15.33203125  Z M 27.3774038461538 21.7247596153846  C 27.7924679487179 22.0953525641026  28 22.5460737179487  28 23.0769230769231  C 28 23.5977564102564  27.786858974359 24.0484775641026  27.3605769230769 24.4290865384615  C 26.9342948717949 24.8096955128205  26.4294871794872 25  25.8461538461538 25  C 25.2403846153846 25  24.7355769230769 24.8096955128205  24.3317307692308 24.4290865384615  L 18.5600961538462 19.2908653846154  C 16.5520833333333 20.5328525641026  14.3141025641026 21.1538461538462  11.8461538461538 21.1538461538462  C 10.2419871794872 21.1538461538462  8.70793269230769 20.8759014423077  7.24399038461538 20.3200120192308  C 5.78004807692308 19.7641225961538  4.51802884615385 19.0129206730769  3.45793269230769 18.06640625  C 2.39783653846154 17.1198918269231  1.55649038461539 15.9930889423077  0.933894230769231 14.6859975961538  C 0.311298076923077 13.37890625  0 12.0092147435897  0 10.5769230769231  C 0 9.14463141025641  0.311298076923077 7.77493990384615  0.933894230769231 6.46784855769231  C 1.55649038461539 5.16075721153846  2.39783653846154 4.03395432692308  3.45793269230769 3.08743990384615  C 4.51802884615385 2.14092548076923  5.78004807692308 1.38972355769231  7.24399038461538 0.833834134615385  C 8.70793269230769 0.277944711538461  10.2419871794872 0  11.8461538461538 0  C 13.4503205128205 0  14.984375 0.277944711538461  16.4483173076923 0.833834134615385  C 17.9122596153846 1.38972355769231  19.1742788461538 2.14092548076923  20.234375 3.08743990384615  C 21.2944711538462 4.03395432692308  22.1358173076923 5.16075721153846  22.7584134615385 6.46784855769231  C 23.3810096153846 7.77493990384615  23.6923076923077 9.14463141025641  23.6923076923077 10.5769230769231  C 23.6923076923077 12.7804487179487  22.9967948717949 14.7786458333333  21.6057692307692 16.5715144230769  L 27.3774038461538 21.7247596153846  Z " fill-rule="nonzero" fill="#000000" stroke="none" transform="matrix(1 0 0 1 310 55 )" />
  </g>
</svg>