<?xml version="1.0" encoding="utf-8"?>
<svg version="1.1" xmlns:xlink="http://www.w3.org/1999/xlink" width="5px" height="11px" xmlns="http://www.w3.org/2000/svg">
  <g transform="matrix(1 0 0 1 -380 -79 )">
    <path d="M 4.91408934707904 0.661322645290581  C 4.97136311569301 0.734802939211756  5 0.819305277221107  5 0.914829659318638  C 5 1.01035404141617  4.97136311569301 1.09485637942552  4.91408934707904 1.16833667334669  L 1.53780068728522 5.5  L 4.91408934707904 9.83166332665331  C 4.97136311569301 9.90514362057448  5 9.98964595858383  5 10.0851703406814  C 5 10.1806947227789  4.97136311569301 10.2651970607882  4.91408934707904 10.3386773547094  L 4.48453608247423 10.8897795591182  C 4.42726231386025 10.9632598530394  4.36139747995418 11  4.28694158075601 11  C 4.21248568155785 11  4.14662084765178 10.9632598530394  4.0893470790378 10.8897795591182  L 0.0859106529209622 5.75350701402806  C 0.0286368843069874 5.68002672010688  0 5.59552438209753  0 5.5  C 0 5.40447561790247  0.0286368843069874 5.31997327989312  0.0859106529209622 5.24649298597194  L 4.0893470790378 0.110220440881764  C 4.14662084765178 0.0367401469605875  4.21248568155785 0  4.28694158075601 0  C 4.36139747995418 0  4.42726231386025 0.0367401469605875  4.48453608247423 0.110220440881764  L 4.91408934707904 0.661322645290581  Z " fill-rule="nonzero" fill="#000000" stroke="none" transform="matrix(1 0 0 1 380 79 )" />
  </g>
</svg>