<?xml version="1.0" encoding="utf-8"?>
<svg version="1.1" xmlns:xlink="http://www.w3.org/1999/xlink" width="26px" height="19px" xmlns="http://www.w3.org/2000/svg">
  <g transform="matrix(1 0 0 1 -28 -30 )">
    <path d="M 15.9453125 11.65234375  C 17.3151041666667 10.6513421474359  18 9.44671474358974  18 8.03846153846154  C 18 6.63020833333333  17.3151041666667 5.42558092948718  15.9453125 4.42457932692308  C 14.5755208333333 3.42357772435897  12.9270833333333 2.92307692307692  11 2.92307692307692  C 9.07291666666667 2.92307692307692  7.42447916666667 3.42357772435897  6.0546875 4.42457932692308  C 4.68489583333333 5.42558092948718  4 6.63020833333333  4 8.03846153846154  C 4 9.44671474358974  4.68489583333333 10.6513421474359  6.0546875 11.65234375  C 7.42447916666667 12.6533453525641  9.07291666666667 13.1538461538462  11 13.1538461538462  C 12.9270833333333 13.1538461538462  14.5755208333333 12.6533453525641  15.9453125 11.65234375  Z M 25.421875 16.5108173076923  C 25.8072916666667 16.7924679487179  26 17.135016025641  26 17.5384615384615  C 26 17.9342948717949  25.8020833333333 18.2768429487179  25.40625 18.5661057692308  C 25.0104166666667 18.8553685897436  24.5416666666667 19  24 19  C 23.4375 19  22.96875 18.8553685897436  22.59375 18.5661057692308  L 17.234375 14.6610576923077  C 15.3697916666667 15.604967948718  13.2916666666667 16.0769230769231  11 16.0769230769231  C 9.51041666666667 16.0769230769231  8.0859375 15.8656850961538  6.7265625 15.4432091346154  C 5.3671875 15.0207331730769  4.1953125 14.4498197115385  3.2109375 13.73046875  C 2.2265625 13.0111177884615  1.4453125 12.1547475961538  0.8671875 11.1613581730769  C 0.2890625 10.16796875  0 9.1270032051282  0 8.03846153846154  C 0 6.94991987179487  0.2890625 5.90895432692308  0.8671875 4.91556490384615  C 1.4453125 3.92217548076923  2.2265625 3.06580528846154  3.2109375 2.34645432692308  C 4.1953125 1.62710336538462  5.3671875 1.05618990384615  6.7265625 0.633713942307693  C 8.0859375 0.21123798076923  9.51041666666667 0  11 0  C 12.4895833333333 0  13.9140625 0.21123798076923  15.2734375 0.633713942307693  C 16.6328125 1.05618990384615  17.8046875 1.62710336538462  18.7890625 2.34645432692308  C 19.7734375 3.06580528846154  20.5546875 3.92217548076923  21.1328125 4.91556490384615  C 21.7109375 5.90895432692308  22 6.94991987179487  22 8.03846153846154  C 22 9.71314102564103  21.3541666666667 11.2317708333333  20.0625 12.5943509615385  L 25.421875 16.5108173076923  Z " fill-rule="nonzero" fill="#000000" stroke="none" transform="matrix(1 0 0 1 28 30 )" />
  </g>
</svg>