<?xml version="1.0" encoding="utf-8"?>
<svg version="1.1" xmlns:xlink="http://www.w3.org/1999/xlink" width="25px" height="25px" xmlns="http://www.w3.org/2000/svg">
  <g transform="matrix(1 0 0 1 -578 -344 )">
    <path d="M 590.5 344  C 597.5 344  603 349.5  603 356.5  C 603 363.5  597.5 369  590.5 369  C 583.5 369  578 363.5  578 356.5  C 578 349.5  583.5 344  590.5 344  Z " fill-rule="nonzero" fill="#ffffff" stroke="none" />
    <path d="M 590.5 344.5  C 597.22 344.5  602.5 349.78  602.5 356.5  C 602.5 363.22  597.22 368.5  590.5 368.5  C 583.78 368.5  578.5 363.22  578.5 356.5  C 578.5 349.78  583.78 344.5  590.5 344.5  Z " stroke-width="1" stroke="#797979" fill="none" />
  </g>
</svg>