<?xml version="1.0" encoding="utf-8"?>
<svg version="1.1" xmlns:xlink="http://www.w3.org/1999/xlink" width="25px" height="25px" xmlns="http://www.w3.org/2000/svg">
  <g transform="matrix(1 0 0 1 -578 -290 )">
    <path d="M 590.5 290  C 597.5 290  603 295.5  603 302.5  C 603 309.5  597.5 315  590.5 315  C 583.5 315  578 309.5  578 302.5  C 578 295.5  583.5 290  590.5 290  Z " fill-rule="nonzero" fill="#d9001b" stroke="none" />
    <path d="M 590.5 290.5  C 597.22 290.5  602.5 295.78  602.5 302.5  C 602.5 309.22  597.22 314.5  590.5 314.5  C 583.78 314.5  578.5 309.22  578.5 302.5  C 578.5 295.78  583.78 290.5  590.5 290.5  Z " stroke-width="1" stroke="#797979" fill="none" />
  </g>
</svg>