<?xml version="1.0" encoding="utf-8"?>
<svg version="1.1" xmlns:xlink="http://www.w3.org/1999/xlink" width="43px" height="9px" xmlns="http://www.w3.org/2000/svg">
  <g transform="matrix(1 0 0 1 -325 -10 )">
    <path d="M 10.8721590909091 0.65625  C 11.4422348484848 1.09375  11.7272727272727 1.625  11.7272727272727 2.25  L 11.7272727272727 6.75  C 11.7272727272727 7.375  11.4422348484848 7.90625  10.8721590909091 8.34375  C 10.3020833333333 8.78125  9.60984848484849 9  8.79545454545455 9  L 2.93181818181818 9  C 2.11742424242424 9  1.42518939393939 8.78125  0.855113636363636 8.34375  C 0.285037878787879 7.90625  0 7.375  0 6.75  L 0 2.25  C 0 1.625  0.285037878787879 1.09375  0.855113636363636 0.65625  C 1.42518939393939 0.218749999999998  2.11742424242424 0  2.93181818181818 0  L 8.79545454545455 0  C 9.60984848484849 0  10.3020833333333 0.218749999999998  10.8721590909091 0.65625  Z M 26.5085227272727 0.65625  C 27.0785984848485 1.09375  27.3636363636364 1.625  27.3636363636364 2.25  L 27.3636363636364 6.75  C 27.3636363636364 7.375  27.0785984848485 7.90625  26.5085227272727 8.34375  C 25.938446969697 8.78125  25.2462121212121 9  24.4318181818182 9  L 18.5681818181818 9  C 17.7537878787879 9  17.061553030303 8.78125  16.4914772727273 8.34375  C 15.9214015151515 7.90625  15.6363636363636 7.375  15.6363636363636 6.75  L 15.6363636363636 2.25  C 15.6363636363636 1.625  15.9214015151515 1.09375  16.4914772727273 0.65625  C 17.061553030303 0.218749999999998  17.7537878787879 0  18.5681818181818 0  L 24.4318181818182 0  C 25.2462121212121 0  25.938446969697 0.218749999999998  26.5085227272727 0.65625  Z M 42.1448863636364 0.65625  C 42.7149621212121 1.09375  43 1.625  43 2.25  L 43 6.75  C 43 7.375  42.7149621212121 7.90625  42.1448863636364 8.34375  C 41.5748106060606 8.78125  40.8825757575758 9  40.0681818181818 9  L 34.2045454545455 9  C 33.3901515151515 9  32.6979166666667 8.78125  32.1278409090909 8.34375  C 31.5577651515152 7.90625  31.2727272727273 7.375  31.2727272727273 6.75  L 31.2727272727273 2.25  C 31.2727272727273 1.625  31.5577651515152 1.09375  32.1278409090909 0.65625  C 32.6979166666667 0.218749999999998  33.3901515151515 0  34.2045454545455 0  L 40.0681818181818 0  C 40.8825757575758 0  41.5748106060606 0.218749999999998  42.1448863636364 0.65625  Z " fill-rule="nonzero" fill="#aaaaaa" stroke="none" transform="matrix(1 0 0 1 325 10 )" />
  </g>
</svg>