<?xml version="1.0" encoding="utf-8"?>
<svg version="1.1" xmlns:xlink="http://www.w3.org/1999/xlink" width="22px" height="14px" xmlns="http://www.w3.org/2000/svg">
  <g transform="matrix(1 0 0 1 -45 -322 )">
    <path d="M 14.5864583333333 13.3559027777778  C 14.6399305555556 13.4369212962963  14.6666666666667 13.5219907407407  14.6666666666667 13.6111111111111  C 14.6666666666667 13.7164351851852  14.6303819444444 13.8075810185185  14.5578125 13.8845486111111  C 14.4852430555556 13.9615162037037  14.3993055555556 14  14.3 14  L 3.3 14  C 3.23888888888889 14  3.18732638888889 13.9918981481481  3.1453125 13.9756944444444  C 3.10329861111111 13.9594907407407  3.06892361111111 13.9311342592593  3.0421875 13.890625  C 3.01545138888889 13.8501157407407  2.99444444444444 13.8177083333333  2.97916666666667 13.7934027777778  C 2.96388888888889 13.7690972222222  2.95243055555556 13.7225115740741  2.94479166666667 13.6536458333333  C 2.93715277777778 13.5847800925926  2.93333333333333 13.5381944444444  2.93333333333333 13.5138888888889  L 2.93333333333333 13.3559027777778  L 2.93333333333333 13.2222222222222  L 2.93333333333333 11.2777777777778  L 2.93333333333333 6.22222222222222  L 0.733333333333333 6.22222222222222  C 0.534722222222222 6.22222222222222  0.362847222222222 6.14525462962963  0.217708333333333 5.99131944444444  C 0.0725694444444445 5.83738425925926  0 5.65509259259259  0 5.44444444444444  C 0 5.25  0.0572916666666667 5.08391203703704  0.171875 4.94618055555556  L 3.83854166666667 0.279513888888889  C 3.98368055555556 0.101273148148148  4.17083333333333 0.0121527777777781  4.4 0.0121527777777781  C 4.62916666666667 0.0121527777777781  4.81631944444444 0.101273148148148  4.96145833333333 0.279513888888889  L 8.628125 4.94618055555556  C 8.74270833333333 5.08391203703704  8.8 5.25  8.8 5.44444444444444  C 8.8 5.65509259259259  8.72743055555556 5.83738425925926  8.58229166666667 5.99131944444444  C 8.43715277777778 6.14525462962963  8.26527777777778 6.22222222222222  8.06666666666667 6.22222222222222  L 5.86666666666667 6.22222222222222  L 5.86666666666667 10.8888888888889  L 12.4666666666667 10.8888888888889  C 12.5888888888889 10.8888888888889  12.684375 10.9334490740741  12.753125 11.0225694444444  L 14.5864583333333 13.3559027777778  Z M 21.7822916666667 8.00868055555556  C 21.9274305555556 8.16261574074074  22 8.3449074074074  22 8.55555555555556  C 22 8.75  21.9427083333333 8.91608796296296  21.828125 9.05381944444444  L 18.1614583333333 13.7204861111111  C 18.0086805555556 13.9068287037037  17.8215277777778 14  17.6 14  C 17.3784722222222 14  17.1913194444444 13.9068287037037  17.0385416666667 13.7204861111111  L 13.371875 9.05381944444444  C 13.2572916666667 8.91608796296296  13.2 8.75  13.2 8.55555555555556  C 13.2 8.3449074074074  13.2725694444444 8.16261574074074  13.4177083333333 8.00868055555556  C 13.5628472222222 7.85474537037037  13.7347222222222 7.77777777777778  13.9333333333333 7.77777777777778  L 16.1333333333333 7.77777777777778  L 16.1333333333333 3.11111111111111  L 9.53333333333333 3.11111111111111  C 9.41111111111111 3.11111111111111  9.315625 3.0625  9.246875 2.96527777777778  L 7.41354166666667 0.631944444444444  C 7.36006944444444 0.559027777777778  7.33333333333333 0.478009259259259  7.33333333333333 0.388888888888889  C 7.33333333333333 0.283564814814814  7.36961805555556 0.192418981481481  7.4421875 0.115451388888889  C 7.51475694444444 0.0384837962962943  7.60069444444444 0  7.7 0  L 18.7 0  C 18.7611111111111 0  18.8126736111111 0.00810185185185053  18.8546875 0.0243055555555562  C 18.8967013888889 0.0405092592592589  18.9310763888889 0.0688657407407396  18.9578125 0.109375  C 18.9845486111111 0.149884259259259  19.0055555555556 0.182291666666667  19.0208333333333 0.206597222222222  C 19.0361111111111 0.230902777777778  19.0475694444444 0.277488425925924  19.0552083333333 0.346354166666667  C 19.0628472222222 0.415219907407405  19.0666666666667 0.461805555555556  19.0666666666667 0.486111111111111  L 19.0666666666667 0.644097222222222  L 19.0666666666667 0.777777777777778  L 19.0666666666667 2.72222222222222  L 19.0666666666667 7.77777777777778  L 21.2666666666667 7.77777777777778  C 21.4652777777778 7.77777777777778  21.6371527777778 7.85474537037037  21.7822916666667 8.00868055555556  Z " fill-rule="nonzero" fill="#aaaaaa" stroke="none" transform="matrix(1 0 0 1 45 322 )" />
  </g>
</svg>