<?xml version="1.0" encoding="utf-8"?>
<svg version="1.1" xmlns:xlink="http://www.w3.org/1999/xlink" width="134px" height="104px" xmlns="http://www.w3.org/2000/svg">
  <g transform="matrix(1 0 0 1 -89 -1002 )">
    <path d="M 89 1002  L 223 1002  L 223 1106  L 89 1106  L 89 1002  " fill-rule="nonzero" fill="#cccccc" stroke="none" />
    <path d="M 96 1009  L 216 1009  L 216 1099  L 96 1099  L 96 1009  " fill-rule="nonzero" fill="#ffffff" stroke="none" />
    <path d="M 166.48 1033.2  C 162.112 1033.2  158.68 1029.768  158.68 1025.4  C 158.68 1021.032  162.112 1017.6  166.48 1017.6  C 170.848 1017.6  174.28 1021.032  174.28 1025.4  C 174.28 1029.768  170.848 1033.2  166.48 1033.2  " fill-rule="nonzero" fill="#cccccc" stroke="none" />
    <path d="M 99 1097  L 99 1050.25  L 127.75 1029  L 168 1057.41791044776  L 191 1041.75  L 214 1057.41791044776  L 214 1097  L 99 1097  " fill-rule="nonzero" fill="#169bd5" stroke="none" />
  </g>
</svg>