<?xml version="1.0" encoding="utf-8"?>
<svg version="1.1" xmlns:xlink="http://www.w3.org/1999/xlink" width="168px" height="110px" xmlns="http://www.w3.org/2000/svg">
  <g transform="matrix(1 0 0 1 -1265 -2277 )">
    <path d="M 1265 2277  L 1433 2277  L 1433 2387  L 1265 2387  L 1265 2277  " fill-rule="nonzero" fill="#cccccc" stroke="none" />
    <path d="M 1273 2285  L 1425 2285  L 1425 2379  L 1273 2379  L 1273 2285  " fill-rule="nonzero" fill="#ffffff" stroke="none" />
    <path d="M 1360.61 2310  C 1355.99 2310  1352.36 2306.37  1352.36 2301.75  C 1352.36 2297.13  1355.99 2293.5  1360.61 2293.5  C 1365.23 2293.5  1368.86 2297.13  1368.86 2301.75  C 1368.86 2306.37  1365.23 2310  1360.61 2310  " fill-rule="nonzero" fill="#cccccc" stroke="none" />
    <path d="M 1276 2376  L 1276 2327.6  L 1312.5 2305.6  L 1363.6 2341.42857142857  L 1392.8 2318.8  L 1422 2341.42857142857  L 1422 2376  L 1276 2376  " fill-rule="nonzero" fill="#169bd5" stroke="none" />
  </g>
</svg>