<?xml version="1.0" encoding="utf-8"?>
<svg version="1.1" xmlns:xlink="http://www.w3.org/1999/xlink" width="374px" height="101px" xmlns="http://www.w3.org/2000/svg">
  <g transform="matrix(1 0 0 1 -14 -92 )">
    <path d="M 14 92  L 388 92  L 388 193  L 14 193  L 14 92  " fill-rule="nonzero" fill="#cccccc" stroke="none" />
    <path d="M 21 99  L 381 99  L 381 186  L 21 186  L 21 99  " fill-rule="nonzero" fill="#ffffff" stroke="none" />
    <path d="M 216.055 122.3  C 211.813 122.3  208.48 118.967  208.48 114.725  C 208.48 110.483  211.813 107.15  216.055 107.15  C 220.297 107.15  223.63 110.483  223.63 114.725  C 223.63 118.967  220.297 122.3  216.055 122.3  " fill-rule="nonzero" fill="#cccccc" stroke="none" />
    <path d="M 24 184  L 24 138.9  L 112.75 118.4  L 237 170.713368983957  L 308 130.7  L 379 170.713368983957  L 379 184  L 24 184  " fill-rule="nonzero" fill="#169bd5" stroke="none" />
  </g>
</svg>