<?xml version="1.0" encoding="utf-8"?>
<svg version="1.1" xmlns:xlink="http://www.w3.org/1999/xlink" width="22px" height="24px" xmlns="http://www.w3.org/2000/svg">
  <g transform="matrix(1 0 0 1 -343 -363 )">
    <path d="M 21.5625 9.20454545454546  C 21.8541666666667 9.52272727272727  22 9.90909090909091  22 10.3636363636364  L 22 13.6363636363636  C 22 14.0909090909091  21.8541666666667 14.4772727272727  21.5625 14.7954545454545  C 21.2708333333333 15.1136363636364  20.9166666666667 15.2727272727273  20.5 15.2727272727273  L 14 15.2727272727273  L 14 22.3636363636364  C 14 22.8181818181818  13.8541666666667 23.2045454545455  13.5625 23.5227272727273  C 13.2708333333333 23.8409090909091  12.9166666666667 24  12.5 24  L 9.5 24  C 9.08333333333333 24  8.72916666666667 23.8409090909091  8.4375 23.5227272727273  C 8.14583333333333 23.2045454545455  8 22.8181818181818  8 22.3636363636364  L 8 15.2727272727273  L 1.5 15.2727272727273  C 1.08333333333333 15.2727272727273  0.729166666666667 15.1136363636364  0.4375 14.7954545454545  C 0.145833333333333 14.4772727272727  0 14.0909090909091  0 13.6363636363636  L 0 10.3636363636364  C 0 9.90909090909091  0.145833333333333 9.52272727272727  0.4375 9.20454545454546  C 0.729166666666667 8.88636363636364  1.08333333333333 8.72727272727273  1.5 8.72727272727273  L 8 8.72727272727273  L 8 1.63636363636364  C 8 1.18181818181818  8.14583333333333 0.795454545454544  8.4375 0.477272727272728  C 8.72916666666667 0.159090909090908  9.08333333333333 0  9.5 0  L 12.5 0  C 12.9166666666667 0  13.2708333333333 0.159090909090908  13.5625 0.477272727272728  C 13.8541666666667 0.795454545454544  14 1.18181818181818  14 1.63636363636364  L 14 8.72727272727273  L 20.5 8.72727272727273  C 20.9166666666667 8.72727272727273  21.2708333333333 8.88636363636364  21.5625 9.20454545454546  Z " fill-rule="nonzero" fill="#000000" stroke="none" transform="matrix(1 0 0 1 343 363 )" />
  </g>
</svg>