<?xml version="1.0" encoding="utf-8"?>
<svg version="1.1" xmlns:xlink="http://www.w3.org/1999/xlink" width="48px" height="43px" xmlns="http://www.w3.org/2000/svg">
  <defs>
    <mask fill="white" id="clip34">
      <path d="M 351.5 375  C 339.5675 375  330 365.4325  330 353.5  L 330 353.5  C 330 341.5675  339.5675 332  351.5 332  L 356.5 332  C 368.4325 332  378 341.5675  378 353.5  L 378 353.5  C 378 365.4325  368.4325 375  356.5 375  " fill-rule="evenodd" />
    </mask>
  </defs>
  <g transform="matrix(1 0 0 1 -330 -332 )">
    <path d="M 330 332  L 378 332  L 378 375  L 330 375  L 330 332  " fill-rule="nonzero" fill="#cccccc" stroke="none" mask="url(#clip34)" />
    <path d="M 333 335  L 375 335  L 375 372  L 333 372  L 333 335  " fill-rule="nonzero" fill="#ffffff" stroke="none" mask="url(#clip34)" />
    <path d="M 358.185 344.9  C 356.379 344.9  354.96 343.481  354.96 341.675  C 354.96 339.869  356.379 338.45  358.185 338.45  C 359.991 338.45  361.41 339.869  361.41 341.675  C 361.41 343.481  359.991 344.9  358.185 344.9  " fill-rule="nonzero" fill="#cccccc" stroke="none" mask="url(#clip34)" />
    <path d="M 334 371  L 334 351.75  L 344 343  L 358 352.1875  L 366 348.25  L 374 352.1875  L 374 371  L 334 371  " fill-rule="nonzero" fill="#169bd5" stroke="none" mask="url(#clip34)" />
  </g>
</svg>