<?xml version="1.0" encoding="utf-8"?>
<svg version="1.1" xmlns:xlink="http://www.w3.org/1999/xlink" width="33px" height="26px" xmlns="http://www.w3.org/2000/svg">
  <g transform="matrix(1 0 0 1 -331 5 )">
    <path d="M 347.5 -5  C 356.74 -5  364 0.719999999999999  364 8  C 364 15.28  356.74 21  347.5 21  C 338.26 21  331 15.28  331 8  C 331 0.719999999999999  338.26 -5  347.5 -5  Z " fill-rule="nonzero" fill="#d9001b" stroke="none" />
    <path d="M 347.5 -4.5  C 356.46 -4.5  363.5 0.999999999999999  363.5 8  C 363.5 15  356.46 20.5  347.5 20.5  C 338.54 20.5  331.5 15  331.5 8  C 331.5 0.999999999999999  338.54 -4.5  347.5 -4.5  Z " stroke-width="1" stroke="#797979" fill="none" />
  </g>
</svg>