<?xml version="1.0" encoding="utf-8"?>
<svg version="1.1" xmlns:xlink="http://www.w3.org/1999/xlink" width="35px" height="31px" xmlns="http://www.w3.org/2000/svg">
  <g transform="matrix(1 0 0 1 -1522 -262 )">
    <path d="M 34.1750841750842 23.1717171717172  C 34.7250280583614 23.658810325477  35 24.2502805836139  35 24.9461279461279  C 35 25.641975308642  34.7250280583614 26.2334455667789  34.1750841750842 26.7205387205387  L 30.1683501683502 30.2693602693603  C 29.618406285073 30.7564534231201  28.9506172839506 31  28.1649831649832 31  C 27.3793490460157 31  26.7115600448934 30.7564534231201  26.1616161616162 30.2693602693603  L 17.5 22.5976430976431  L 8.83838383838384 30.2693602693603  C 8.28843995510662 30.7564534231201  7.62065095398429 31  6.83501683501683 31  C 6.04938271604938 31  5.38159371492705 30.7564534231201  4.83164983164983 30.2693602693603  L 0.824915824915825 26.7205387205387  C 0.274971941638609 26.2334455667789  0 25.641975308642  0 24.9461279461279  C 0 24.2502805836139  0.274971941638609 23.658810325477  0.824915824915825 23.1717171717172  L 9.48653198653199 15.5  L 0.824915824915825 7.82828282828283  C 0.274971941638609 7.34118967452301  0 6.74971941638608  0 6.05387205387205  C 0 5.35802469135802  0.274971941638609 4.7665544332211  0.824915824915825 4.27946127946128  L 4.83164983164983 0.730639730639731  C 5.38159371492705 0.243546576879909  6.04938271604938 0  6.83501683501683 0  C 7.62065095398429 0  8.28843995510662 0.243546576879909  8.83838383838384 0.730639730639731  L 17.5 8.4023569023569  L 26.1616161616162 0.730639730639731  C 26.7115600448934 0.243546576879909  27.3793490460157 0  28.1649831649832 0  C 28.9506172839506 0  29.618406285073 0.243546576879909  30.1683501683502 0.730639730639731  L 34.1750841750842 4.27946127946128  C 34.7250280583614 4.7665544332211  35 5.35802469135802  35 6.05387205387205  C 35 6.74971941638608  34.7250280583614 7.34118967452301  34.1750841750842 7.82828282828283  L 25.513468013468 15.5  L 34.1750841750842 23.1717171717172  Z " fill-rule="nonzero" fill="#000000" stroke="none" transform="matrix(1 0 0 1 1522 262 )" />
  </g>
</svg>