<?xml version="1.0" encoding="utf-8"?>
<svg version="1.1" xmlns:xlink="http://www.w3.org/1999/xlink" width="89px" height="74px" xmlns="http://www.w3.org/2000/svg">
  <g transform="matrix(1 0 0 1 -69 -281 )">
    <path d="M 69 281  L 158 281  L 158 355  L 69 355  L 69 281  " fill-rule="nonzero" fill="#cccccc" stroke="none" />
    <path d="M 74 286  L 153 286  L 153 350  L 74 350  L 74 286  " fill-rule="nonzero" fill="#ffffff" stroke="none" />
    <path d="M 120.83 303.2  C 117.722 303.2  115.28 300.758  115.28 297.65  C 115.28 294.542  117.722 292.1  120.83 292.1  C 123.938 292.1  126.38 294.542  126.38 297.65  C 126.38 300.758  123.938 303.2  120.83 303.2  " fill-rule="nonzero" fill="#cccccc" stroke="none" />
    <path d="M 76 348  L 76 315  L 94.75 300  L 121 318.067415730337  L 136 309  L 151 318.067415730337  L 151 348  L 76 348  " fill-rule="nonzero" fill="#169bd5" stroke="none" />
  </g>
</svg>