<?xml version="1.0" encoding="utf-8"?>
<svg version="1.1" xmlns:xlink="http://www.w3.org/1999/xlink" width="34px" height="30px" xmlns="http://www.w3.org/2000/svg">
  <g transform="matrix(1 0 0 1 -198 -303 )">
    <path d="M 25.5 13.92578125  C 25.9722222222222 14.16015625  26.2083333333333 14.5182291666667  26.2083333333333 15  C 26.2083333333333 15.4817708333333  25.9722222222222 15.83984375  25.5 16.07421875  L 13.4583333333333 22.32421875  C 13.2369791666667 22.44140625  13.0008680555556 22.5  12.75 22.5  C 12.5138888888889 22.5  12.2777777777778 22.4479166666667  12.0416666666667 22.34375  C 11.5694444444444 22.0963541666667  11.3333333333333 21.7317708333333  12 21.25  L 12 8.75  C 11.3333333333333 8.26822916666666  11.5694444444444 7.90364583333333  12.0416666666667 7.65625  C 12.5286458333333 7.421875  13.0008680555556 7.42838541666667  13.4583333333333 7.67578125  L 25.5 13.92578125  Z M 27.42578125 20.33203125  C 28.5030381944444 18.7044270833333  29.0416666666667 16.9270833333333  29.0416666666667 15  C 29.0416666666667 13.0729166666667  28.5030381944444 11.2955729166667  27.42578125 9.66796875  C 26.3485243055556 8.04036458333333  24.8875868055556 6.75130208333333  23.04296875 5.80078125  C 21.1983506944444 4.85026041666667  19.1840277777778 4.375  17 4.375  C 14.8159722222222 4.375  12.8016493055556 4.85026041666667  10.95703125 5.80078125  C 9.11241319444444 6.75130208333333  7.65147569444444 8.04036458333333  6.57421875 9.66796875  C 5.49696180555556 11.2955729166667  4.95833333333333 13.0729166666667  4.95833333333333 15  C 4.95833333333333 16.9270833333333  5.49696180555556 18.7044270833333  6.57421875 20.33203125  C 7.65147569444444 21.9596354166667  9.11241319444444 23.2486979166667  10.95703125 24.19921875  C 12.8016493055556 25.1497395833333  14.8159722222222 25.625  17 25.625  C 19.1840277777778 25.625  21.1983506944444 25.1497395833333  23.04296875 24.19921875  C 24.8875868055556 23.2486979166667  26.3485243055556 21.9596354166667  27.42578125 20.33203125  Z M 31.7200520833333 7.470703125  C 33.2400173611111 9.76888020833333  34 12.2786458333333  34 15  C 34 17.7213541666667  33.2400173611111 20.2311197916667  31.7200520833333 22.529296875  C 30.2000868055556 24.8274739583333  28.1378038194444 26.6471354166667  25.533203125 27.98828125  C 22.9286024305556 29.3294270833333  20.0842013888889 30  17 30  C 13.9157986111111 30  11.0713975694444 29.3294270833333  8.466796875 27.98828125  C 5.86219618055556 26.6471354166667  3.79991319444444 24.8274739583333  2.27994791666667 22.529296875  C 0.759982638888889 20.2311197916667  0 17.7213541666667  0 15  C 0 12.2786458333333  0.759982638888889 9.76888020833333  2.27994791666667 7.470703125  C 3.79991319444444 5.17252604166667  5.86219618055556 3.35286458333333  8.466796875 2.01171875  C 11.0713975694444 0.670572916666664  13.9157986111111 0  17 0  C 20.0842013888889 0  22.9286024305556 0.670572916666664  25.533203125 2.01171875  C 28.1378038194444 3.35286458333333  30.2000868055556 5.17252604166667  31.7200520833333 7.470703125  Z " fill-rule="nonzero" fill="#000000" stroke="none" transform="matrix(1 0 0 1 198 303 )" />
  </g>
</svg>