<?xml version="1.0" encoding="utf-8"?>
<svg version="1.1" xmlns:xlink="http://www.w3.org/1999/xlink" width="22px" height="28px" xmlns="http://www.w3.org/2000/svg">
  <g transform="matrix(1 0 0 1 -651 -244 )">
    <path d="M 7.859375 23.1692708333333  C 7.953125 23.0598958333333  8 22.9201388888889  8 22.75  L 8 9.91666666666667  C 8 9.74652777777778  7.953125 9.60677083333333  7.859375 9.49739583333333  C 7.765625 9.38802083333333  7.64583333333333 9.33333333333333  7.5 9.33333333333333  L 6.5 9.33333333333333  C 6.35416666666667 9.33333333333333  6.234375 9.38802083333333  6.140625 9.49739583333333  C 6.046875 9.60677083333333  6 9.74652777777778  6 9.91666666666667  L 6 22.75  C 6 22.9201388888889  6.046875 23.0598958333333  6.140625 23.1692708333333  C 6.234375 23.2786458333333  6.35416666666667 23.3333333333333  6.5 23.3333333333333  L 7.5 23.3333333333333  C 7.64583333333333 23.3333333333333  7.765625 23.2786458333333  7.859375 23.1692708333333  Z M 11.859375 23.1692708333333  C 11.953125 23.0598958333333  12 22.9201388888889  12 22.75  L 12 9.91666666666667  C 12 9.74652777777778  11.953125 9.60677083333333  11.859375 9.49739583333333  C 11.765625 9.38802083333333  11.6458333333333 9.33333333333333  11.5 9.33333333333333  L 10.5 9.33333333333333  C 10.3541666666667 9.33333333333333  10.234375 9.38802083333333  10.140625 9.49739583333333  C 10.046875 9.60677083333333  10 9.74652777777778  10 9.91666666666667  L 10 22.75  C 10 22.9201388888889  10.046875 23.0598958333333  10.140625 23.1692708333333  C 10.234375 23.2786458333333  10.3541666666667 23.3333333333333  10.5 23.3333333333333  L 11.5 23.3333333333333  C 11.6458333333333 23.3333333333333  11.765625 23.2786458333333  11.859375 23.1692708333333  Z M 15.859375 23.1692708333333  C 15.953125 23.0598958333333  16 22.9201388888889  16 22.75  L 16 9.91666666666667  C 16 9.74652777777778  15.953125 9.60677083333333  15.859375 9.49739583333333  C 15.765625 9.38802083333333  15.6458333333333 9.33333333333333  15.5 9.33333333333333  L 14.5 9.33333333333333  C 14.3541666666667 9.33333333333333  14.234375 9.38802083333333  14.140625 9.49739583333333  C 14.046875 9.60677083333333  14 9.74652777777778  14 9.91666666666667  L 14 22.75  C 14 22.9201388888889  14.046875 23.0598958333333  14.140625 23.1692708333333  C 14.234375 23.2786458333333  14.3541666666667 23.3333333333333  14.5 23.3333333333333  L 15.5 23.3333333333333  C 15.6458333333333 23.3333333333333  15.765625 23.2786458333333  15.859375 23.1692708333333  Z M 8.265625 2.53385416666667  L 7.5 4.66666666666667  L 14.5 4.66666666666667  L 13.75 2.53385416666667  C 13.6770833333333 2.42447916666667  13.5885416666667 2.35763888888889  13.484375 2.33333333333333  L 8.53125 2.33333333333333  C 8.42708333333333 2.35763888888889  8.33854166666667 2.42447916666667  8.265625 2.53385416666667  Z M 21.859375 4.83072916666667  C 21.953125 4.94010416666667  22 5.07986111111111  22 5.25  L 22 6.41666666666667  C 22 6.58680555555555  21.953125 6.7265625  21.859375 6.8359375  C 21.765625 6.9453125  21.6458333333333 7  21.5 7  L 20 7  L 20 24.28125  C 20 25.2899305555556  19.7552083333333 26.1618923611111  19.265625 26.8971354166667  C 18.7760416666667 27.6323784722222  18.1875 28  17.5 28  L 4.5 28  C 3.8125 28  3.22395833333333 27.64453125  2.734375 26.93359375  C 2.24479166666667 26.22265625  2 25.3628472222222  2 24.3541666666667  L 2 7  L 0.5 7  C 0.354166666666667 7  0.234375 6.9453125  0.140625 6.8359375  C 0.046875 6.7265625  0 6.58680555555555  0 6.41666666666667  L 0 5.25  C 0 5.07986111111111  0.046875 4.94010416666667  0.140625 4.83072916666667  C 0.234375 4.72135416666667  0.354166666666667 4.66666666666667  0.5 4.66666666666667  L 5.328125 4.66666666666667  L 6.421875 1.62239583333333  C 6.578125 1.17274305555555  6.859375 0.789930555555553  7.265625 0.473958333333334  C 7.671875 0.157986111111109  8.08333333333333 0  8.5 0  L 13.5 0  C 13.9166666666667 0  14.328125 0.157986111111109  14.734375 0.473958333333334  C 15.140625 0.789930555555553  15.421875 1.17274305555555  15.578125 1.62239583333333  L 16.671875 4.66666666666667  L 21.5 4.66666666666667  C 21.6458333333333 4.66666666666667  21.765625 4.72135416666667  21.859375 4.83072916666667  Z " fill-rule="nonzero" fill="#000000" stroke="none" transform="matrix(1 0 0 1 651 244 )" />
  </g>
</svg>