<?xml version="1.0" encoding="utf-8"?>
<svg version="1.1" xmlns:xlink="http://www.w3.org/1999/xlink" width="38px" height="34px" xmlns="http://www.w3.org/2000/svg">
  <g transform="matrix(1 0 0 1 -798 -213 )">
    <path d="M 37.1043771043771 25.4141414141414  C 37.7014590347924 25.9483726150393  38 26.5970819304153  38 27.3602693602694  C 38 28.1234567901235  37.7014590347924 28.7721661054994  37.1043771043771 29.3063973063973  L 32.7542087542088 33.1986531986532  C 32.1571268237935 33.7328843995511  31.4320987654321 34  30.5791245791246 34  C 29.7261503928171 34  29.0011223344557 33.7328843995511  28.4040404040404 33.1986531986532  L 19 24.7845117845118  L 9.5959595959596 33.1986531986532  C 8.99887766554433 33.7328843995511  8.27384960718294 34  7.42087542087542 34  C 6.5679012345679 34  5.84287317620651 33.7328843995511  5.24579124579125 33.1986531986532  L 0.895622895622896 29.3063973063973  C 0.298540965207632 28.7721661054994  0 28.1234567901235  0 27.3602693602694  C 0 26.5970819304153  0.298540965207632 25.9483726150393  0.895622895622896 25.4141414141414  L 10.2996632996633 17  L 0.895622895622896 8.58585858585858  C 0.298540965207632 8.05162738496072  0 7.40291806958474  0 6.63973063973064  C 0 5.87654320987654  0.298540965207632 5.22783389450056  0.895622895622896 4.69360269360269  L 5.24579124579125 0.801346801346801  C 5.84287317620651 0.267115600448933  6.5679012345679 0  7.42087542087542 0  C 8.27384960718294 0  8.99887766554433 0.267115600448933  9.5959595959596 0.801346801346801  L 19 9.21548821548822  L 28.4040404040404 0.801346801346801  C 29.0011223344557 0.267115600448933  29.7261503928171 0  30.5791245791246 0  C 31.4320987654321 0  32.1571268237935 0.267115600448933  32.7542087542088 0.801346801346801  L 37.1043771043771 4.69360269360269  C 37.7014590347924 5.22783389450056  38 5.87654320987654  38 6.63973063973064  C 38 7.40291806958474  37.7014590347924 8.05162738496072  37.1043771043771 8.58585858585858  L 27.7003367003367 17  L 37.1043771043771 25.4141414141414  Z " fill-rule="nonzero" fill="#000000" stroke="none" transform="matrix(1 0 0 1 798 213 )" />
  </g>
</svg>