<?xml version="1.0" encoding="utf-8"?>
<svg version="1.1" xmlns:xlink="http://www.w3.org/1999/xlink" width="20px" height="17px" xmlns="http://www.w3.org/2000/svg">
  <g transform="matrix(1 0 0 1 -240 -118 )">
    <path d="M 18.4654017857143 15.6955915178571  C 18.5360863095238 15.635509672619  18.5714285714286 15.5643601190476  18.5714285714286 15.4821428571429  L 18.5714285714286 5.16071428571429  C 18.5714285714286 5.07849702380952  18.5360863095238 5.00734747023809  18.4654017857143 4.947265625  C 18.3947172619048 4.8871837797619  18.3110119047619 4.85714285714286  18.2142857142857 5  L 6.07142857142857 5  C 5.97470238095238 4.85714285714286  5.89099702380952 4.8871837797619  5.8203125 4.947265625  C 5.74962797619048 5.00734747023809  5.71428571428571 5.07849702380952  6 5.16071428571429  L 6 15.4821428571429  C 5.71428571428571 15.5643601190476  5.74962797619048 15.635509672619  5.8203125 15.6955915178571  C 5.89099702380952 15.7556733630952  5.97470238095238 15.7857142857143  6.07142857142857 15.7857142857143  L 18.2142857142857 15.7857142857143  C 18.3110119047619 15.7857142857143  18.3947172619048 15.7556733630952  18.4654017857143 15.6955915178571  Z M 19.4754464285714 4.08872767857143  C 19.8251488095238 4.38597470238095  20 4.74330357142857  20 5.16071428571429  L 20 15.4821428571429  C 20 15.8995535714286  19.8251488095238 16.2568824404762  19.4754464285714 16.5541294642857  C 19.1257440476191 16.8513764880952  18.7053571428571 17  18.2142857142857 17  L 6.07142857142857 17  C 5.58035714285714 17  5.15997023809524 16.8513764880952  4.81026785714286 16.5541294642857  C 4.46056547619048 16.2568824404762  4.28571428571429 15.8995535714286  4.28571428571429 15.4821428571429  L 4.28571428571429 5.16071428571429  C 4.28571428571429 4.74330357142857  4.46056547619048 4.38597470238095  4.81026785714286 4.08872767857143  C 5.15997023809524 3.7914806547619  5.58035714285714 3.64285714285714  6.07142857142857 3.64285714285714  L 18.2142857142857 3.64285714285714  C 18.7053571428571 3.64285714285714  19.1257440476191 3.7914806547619  19.4754464285714 4.08872767857143  Z M 15.1897321428571 0.445870535714286  C 15.5394345238095 0.743117559523809  15.7142857142857 1.10044642857143  15.7142857142857 1.51785714285714  L 15.7142857142857 3.03571428571429  L 14.2857142857143 3.03571428571429  L 14.2857142857143 1.51785714285714  C 14.2857142857143 1.43563988095238  14.2503720238095 1.36449032738095  14.1796875 1.30440848214286  C 14.1090029761905 1.24432663690476  14.0252976190476 1.21428571428571  13.9285714285714 1.21428571428571  L 1.78571428571429 1.21428571428571  C 1.6889880952381 1.21428571428571  1.60528273809524 1.24432663690476  1.53459821428571 1.30440848214286  C 1.46391369047619 1.36449032738095  1.42857142857143 1.43563988095238  1.42857142857143 1.51785714285714  L 1.42857142857143 11.8392857142857  C 1.42857142857143 11.9215029761905  1.46391369047619 11.9926525297619  1.53459821428571 12.052734375  C 1.60528273809524 12.1128162202381  1.6889880952381 12.1428571428571  1.78571428571429 12.1428571428571  L 3.57142857142857 12.1428571428571  L 3.57142857142857 13.3571428571429  L 1.78571428571429 13.3571428571429  C 1.29464285714286 13.3571428571429  0.874255952380952 13.2085193452381  0.524553571428571 12.9112723214286  C 0.17485119047619 12.614025297619  0 12.2566964285714  0 11.8392857142857  L 0 1.51785714285714  C 0 1.10044642857143  0.17485119047619 0.743117559523809  0.524553571428571 0.445870535714286  C 0.874255952380952 0.148623511904762  1.29464285714286 0  1.78571428571429 0  L 13.9285714285714 0  C 14.4196428571429 0  14.8400297619048 0.148623511904762  15.1897321428571 0.445870535714286  Z " fill-rule="nonzero" fill="#000000" stroke="none" transform="matrix(1 0 0 1 240 118 )" />
  </g>
</svg>