<?xml version="1.0" encoding="utf-8"?>
<svg version="1.1" xmlns:xlink="http://www.w3.org/1999/xlink" width="27px" height="18px" xmlns="http://www.w3.org/2000/svg">
  <g transform="matrix(1 0 0 1 -30 -28 )">
    <path d="M 26.666015625 14.6671875  C 26.888671875 14.8453125  27 15.05625  27 15.3  L 27 17.1  C 27 17.34375  26.888671875 17.5546875  26.666015625 17.7328125  C 26.443359375 17.9109375  26.1796875 18  25.875 18  L 1.125 18  C 0.8203125 18  0.556640625 17.9109375  0.333984375 17.7328125  C 0.111328125 17.5546875  0 17.34375  0 17.1  L 0 15.3  C 0 15.05625  0.111328125 14.8453125  0.333984375 14.6671875  C 0.556640625 14.4890625  0.8203125 14.4  1.125 14.4  L 25.875 14.4  C 26.1796875 14.4  26.443359375 14.4890625  26.666015625 14.6671875  Z M 26.666015625 7.4671875  C 26.888671875 7.6453125  27 7.85625  27 8.1  L 27 9.9  C 27 10.14375  26.888671875 10.3546875  26.666015625 10.5328125  C 26.443359375 10.7109375  26.1796875 10.8  25.875 10.8  L 1.125 10.8  C 0.8203125 10.8  0.556640625 10.7109375  0.333984375 10.5328125  C 0.111328125 10.3546875  0 10.14375  0 9.9  L 0 8.1  C 0 7.85625  0.111328125 7.6453125  0.333984375 7.4671875  C 0.556640625 7.2890625  0.8203125 7.2  1.125 7.2  L 25.875 7.2  C 26.1796875 7.2  26.443359375 7.2890625  26.666015625 7.4671875  Z M 26.666015625 0.267187500000001  C 26.888671875 0.445312499999999  27 0.656249999999999  27 0.900000000000001  L 27 2.7  C 27 2.94375  26.888671875 3.1546875  26.666015625 3.3328125  C 26.443359375 3.5109375  26.1796875 3.6  25.875 3.6  L 1.125 3.6  C 0.8203125 3.6  0.556640625 3.5109375  0.333984375 3.3328125  C 0.111328125 3.1546875  0 2.94375  0 2.7  L 0 0.900000000000001  C 0 0.656249999999999  0.111328125 0.445312499999999  0.333984375 0.267187500000001  C 0.556640625 0.0890624999999989  0.8203125 0  1.125 0  L 25.875 0  C 26.1796875 0  26.443359375 0.0890624999999989  26.666015625 0.267187500000001  Z " fill-rule="nonzero" fill="#000000" stroke="none" transform="matrix(1 0 0 1 30 28 )" />
  </g>
</svg>