<?xml version="1.0" encoding="utf-8"?>
<svg version="1.1" xmlns:xlink="http://www.w3.org/1999/xlink" width="22px" height="20px" xmlns="http://www.w3.org/2000/svg">
  <g transform="matrix(1 0 0 1 -366 -81 )">
    <path d="M 20.3119419642857 18.4654017857143  C 20.3896949404762 18.3947172619048  20.4285714285714 18.3110119047619  20 18.2142857142857  L 20 6.07142857142857  C 20.4285714285714 5.97470238095238  20.3896949404762 5.89099702380952  20.3119419642857 5.8203125  C 20.2341889880952 5.74962797619047  20.1421130952381 5.71428571428571  20.0357142857143 6  L 6.67857142857143 6  C 6.57217261904762 5.71428571428571  6.48009672619048 5.74962797619047  6.40234375 5.8203125  C 6.32459077380952 5.89099702380952  6.28571428571429 5.97470238095238  6.28571428571429 6.07142857142857  L 6.28571428571429 18.2142857142857  C 6.28571428571429 18.3110119047619  6.32459077380952 18.3947172619048  6.40234375 18.4654017857143  C 6.48009672619048 18.5360863095238  6.57217261904762 18.5714285714286  6.67857142857143 18.5714285714286  L 20.0357142857143 18.5714285714286  C 20.1421130952381 18.5714285714286  20.2341889880952 18.5360863095238  20.3119419642857 18.4654017857143  Z M 21.4229910714286 4.81026785714286  C 21.8076636904762 5.15997023809524  22 5.58035714285714  22 6.07142857142857  L 22 18.2142857142857  C 22 18.7053571428571  21.8076636904762 19.125744047619  21.4229910714286 19.4754464285714  C 21.038318452381 19.8251488095238  20.5758928571429 20  20.0357142857143 20  L 6.67857142857143 20  C 6.13839285714286 20  5.67596726190476 19.8251488095238  5.29129464285714 19.4754464285714  C 4.90662202380952 19.125744047619  4.71428571428571 18.7053571428571  5 18.2142857142857  L 5 6.07142857142857  C 4.71428571428571 5.58035714285714  4.90662202380952 5.15997023809524  5.29129464285714 4.81026785714286  C 5.67596726190476 4.46056547619047  6.13839285714286 4.28571428571429  6.67857142857143 4.28571428571429  L 20.0357142857143 4.28571428571429  C 20.5758928571429 4.28571428571429  21.038318452381 4.46056547619047  21.4229910714286 4.81026785714286  Z M 16.7087053571429 0.524553571428572  C 17.0933779761905 0.874255952380951  17.2857142857143 1.29464285714286  17.2857142857143 1.78571428571429  L 17.2857142857143 3.57142857142857  L 15.7142857142857 3.57142857142857  L 15.7142857142857 1.78571428571429  C 15.7142857142857 1.6889880952381  15.6754092261905 1.60528273809524  15.59765625 1.53459821428571  C 15.5199032738095 1.46391369047619  15.4278273809524 1.42857142857143  15.3214285714286 1.42857142857143  L 1.96428571428571 1.42857142857143  C 1.8578869047619 1.42857142857143  1.76581101190476 1.46391369047619  1.68805803571429 1.53459821428571  C 1.61030505952381 1.60528273809524  1.57142857142857 1.6889880952381  2 1.78571428571429  L 2 13.9285714285714  C 1.57142857142857 14.0252976190476  1.61030505952381 14.1090029761905  1.68805803571429 14.1796875  C 1.76581101190476 14.2503720238095  1.8578869047619 14.2857142857143  1.96428571428571 14.2857142857143  L 3.92857142857143 14.2857142857143  L 3.92857142857143 15.7142857142857  L 1.96428571428571 15.7142857142857  C 1.42410714285714 15.7142857142857  0.961681547619048 15.5394345238095  0.577008928571429 15.1897321428571  C 0.19233630952381 14.8400297619048  0 14.4196428571429  0 13.9285714285714  L 0 1.78571428571429  C 0 1.29464285714286  0.19233630952381 0.874255952380951  0.577008928571429 0.524553571428572  C 0.961681547619048 0.174851190476191  1.42410714285714 0  1.96428571428571 0  L 15.3214285714286 0  C 15.8616071428571 0  16.3240327380952 0.174851190476191  16.7087053571429 0.524553571428572  Z " fill-rule="nonzero" fill="#000000" stroke="none" transform="matrix(1 0 0 1 366 81 )" />
  </g>
</svg>