<?xml version="1.0" encoding="utf-8"?>
<svg version="1.1" xmlns:xlink="http://www.w3.org/1999/xlink" width="91px" height="10px" preserveAspectRatio="xMinYMid meet" viewBox="344 468  91 8" xmlns="http://www.w3.org/2000/svg">
  <path d="M 350 472  L 430 472  L 430 640  L 510 640  " stroke-width="2" stroke="#00ffff" fill="none" />
  <path d="M 347.5 468.5  A 3.5 3.5 0 0 0 344 472 A 3.5 3.5 0 0 0 347.5 475.5 A 3.5 3.5 0 0 0 351 472 A 3.5 3.5 0 0 0 347.5 468.5 Z M 347.5 470.5  A 1.5 1.5 0 0 1 349 472 A 1.5 1.5 0 0 1 347.5 473.5 A 1.5 1.5 0 0 1 346 472 A 1.5 1.5 0 0 1 347.5 470.5 Z M 509 647.6  L 516 640  L 509 632.4  L 509 647.6  Z M 511 642.8  L 511 637.2  L 513 640  L 511 642.8  Z " fill-rule="nonzero" fill="#00ffff" stroke="none" />
</svg>